<?xml version="1.0" encoding="UTF-8" standalone="no"?>
<!-- Created with Inkscape (http://www.inkscape.org/) -->

<svg
   width="20.68449mm"
   height="43.16692mm"
   viewBox="0 0 20.68449 43.16692"
   version="1.1"
   id="svg1"
   inkscape:version="1.3.1 (9b9bdc1480, 2023-11-25, custom)"
   sodipodi:docname="menuDit.svg"
   xml:space="preserve"
   xmlns:inkscape="http://www.inkscape.org/namespaces/inkscape"
   xmlns:sodipodi="http://sodipodi.sourceforge.net/DTD/sodipodi-0.dtd"
   xmlns="http://www.w3.org/2000/svg"
   xmlns:svg="http://www.w3.org/2000/svg"><sodipodi:namedview
     id="namedview1"
     pagecolor="#ffffff"
     bordercolor="#000000"
     borderopacity="0.25"
     inkscape:showpageshadow="2"
     inkscape:pageopacity="0.0"
     inkscape:pagecheckerboard="0"
     inkscape:deskcolor="#d1d1d1"
     inkscape:document-units="mm"
     inkscape:zoom="2.8469196"
     inkscape:cx="38.98951"
     inkscape:cy="83.59913"
     inkscape:window-width="1366"
     inkscape:window-height="660"
     inkscape:window-x="0"
     inkscape:window-y="0"
     inkscape:window-maximized="1"
     inkscape:current-layer="layer1" /><defs
     id="defs1" /><g
     inkscape:label="Layer 1"
     inkscape:groupmode="layer"
     id="layer1"
     transform="translate(-142.19753,-127.18521)"><path
       style="fill:#000000"
       d="m 143.36204,170.19064 c -0.25587,-0.16402 -0.31997,-1.23718 -0.26458,-4.42988 l 0.0731,-4.21342 0.8599,-0.0829 0.85989,-0.0829 v -2.51443 c 0,-2.2936 -0.0598,-2.59284 -0.68093,-3.40719 -0.37452,-0.49102 -0.93468,-1.52487 -1.24481,-2.29745 -0.52162,-1.29945 -0.57148,-1.99421 -0.66547,-9.27291 l -0.10161,-7.86821 0.79689,-0.79689 c 0.94423,-0.94422 2.29338,-1.07033 3.24105,-0.30295 0.59516,0.48193 0.62967,0.48196 1.41838,9.9e-4 1.03338,-0.63017 2.02299,-0.62805 2.82913,0.006 0.62498,0.49161 0.64851,0.49161 1.25562,0 0.68011,-0.55072 1.89768,-0.65335 2.69414,-0.2271 0.49141,0.26299 0.51178,0.15927 0.51178,-2.60671 0,-2.54991 0.0683,-2.98172 0.59531,-3.76143 0.74217,-1.09814 1.81112,-1.42122 3.02466,-0.91417 1.51618,0.6335 1.67169,1.39671 1.67169,8.20404 v 5.97513 l 0.91972,0.38428 c 1.05799,0.44206 1.72612,1.5435 1.72612,2.84561 0,0.49605 -0.43563,1.84142 -0.96806,2.9897 -2.93148,6.32221 -3.09536,6.8517 -3.19906,10.33567 -0.0951,3.19424 -0.0908,3.22151 0.51427,3.30729 0.60898,0.0863 0.61014,0.0948 0.61014,4.45211 v 4.36563 l -8.06979,0.0643 c -4.43839,0.0353 -8.22175,-0.0332 -8.40747,-0.15221 z m 15.81581,-2.2826 v -1.44451 l -2.18281,-0.0769 c -1.72974,-0.0609 -2.18282,-0.15922 -2.18282,-0.47372 0,-0.31449 0.45308,-0.41282 2.18282,-0.47372 l 2.18281,-0.0768 v -1.44451 -1.44451 h -7.67292 -7.67291 v 3.43958 3.43959 h 7.67291 7.67292 z m -1.5875,-8.87424 c 0,-1.30969 -0.0476,-2.38125 -0.1057,-2.38125 -0.0581,0 -0.69736,0.39815 -1.4205,0.88479 -1.2909,0.86871 -4.26645,1.70863 -4.82662,1.36242 -0.56257,-0.34769 -0.20754,-0.63496 0.99501,-0.80511 0.69122,-0.0978 1.76094,-0.39525 2.37716,-0.66099 1.59459,-0.68765 3.58927,-2.77813 4.1634,-4.36335 0.26146,-0.7219 1.11433,-2.73164 1.89527,-4.46607 1.45346,-3.22806 1.63465,-4.02063 1.1333,-4.9574 -0.29474,-0.55073 -6.54456,-3.66304 -7.35573,-3.66304 -0.24311,0 -0.71314,0.1899 -1.04453,0.42201 -0.47402,0.33202 -0.58531,0.62825 -0.52189,1.38906 0.0762,0.91437 0.18872,1.02198 2.065,1.97536 l 1.98437,1.00831 -0.0909,1.66625 c -0.0844,1.54685 -0.0322,1.73307 0.7276,2.5985 1.36059,1.54963 0.99779,2.11826 -0.44901,0.70374 -0.97792,-0.9561 -1.43013,-2.33452 -1.21245,-3.69579 0.13484,-0.84325 0.079,-0.98381 -0.44549,-1.12096 -0.32982,-0.0863 -0.81071,-0.0439 -1.06866,0.0942 -0.75376,0.4034 -1.98415,0.29029 -2.64266,-0.24294 -0.59516,-0.48193 -0.62966,-0.48196 -1.41838,-9.9e-4 -1.00896,0.61528 -1.38277,0.61717 -2.56782,0.013 -0.92,-0.46904 -0.96213,-0.46831 -1.57419,0.0273 -0.4799,0.3886 -0.90173,0.47849 -1.78065,0.37942 l -1.15177,-0.12982 0.0954,3.74054 c 0.10118,3.9655 0.27949,4.62669 1.70993,6.34052 0.56816,0.68073 0.62424,0.99563 0.62424,3.50573 v 2.75783 h 5.95312 5.95313 z m -11.64166,-15.08125 c 0.4769,-0.47691 0.52916,-0.88195 0.52916,-4.10105 0,-3.21909 -0.0523,-3.62413 -0.52916,-4.10104 -0.29105,-0.29104 -0.82683,-0.52916 -1.19063,-0.52916 -0.3638,0 -0.89958,0.23812 -1.19062,0.52916 -0.47676,0.47675 -0.52917,0.88195 -0.52917,4.09074 0,3.32313 0.0388,3.59768 0.57906,4.10104 0.73492,0.68468 1.65292,0.68874 2.33136,0.0103 z m 4.06535,-0.0192 c 0.68981,-0.5426 0.69714,-0.58485 0.69714,-4.01784 0,-3.19804 -0.045,-3.51738 -0.57529,-4.08184 -0.73894,-0.78657 -1.40233,-0.77546 -2.21486,0.0371 -0.61802,0.61802 -0.64943,0.8044 -0.64943,3.85385 0,3.36018 0.18993,4.1072 1.14177,4.4907 0.81564,0.32863 0.82701,0.32663 1.60067,-0.28194 z m 3.60756,0.28379 c 0,-0.14552 -0.11443,-0.26458 -0.25428,-0.26458 -0.62621,0 -1.33296,-1.1911 -1.32481,-2.23271 0.0119,-1.51358 0.96311,-2.52979 2.36807,-2.52979 0.51767,0 0.55334,-0.12211 0.48042,-1.64473 -0.0695,-1.45081 -0.15893,-1.68958 -0.75857,-2.02506 -0.92143,-0.51552 -2.04595,-0.2066 -2.37227,0.65169 -0.14038,0.36921 -0.25523,2.09771 -0.25523,3.8411 0,3.01269 0.0322,3.20199 0.64943,3.81923 0.6575,0.6575 1.46724,0.86989 1.46724,0.38485 z m 5.55625,-9.17344 c 0,-5.21031 -0.0575,-6.06201 -0.43788,-6.48229 -0.52259,-0.57745 -1.64323,-0.62919 -2.35582,-0.10877 -0.47381,0.34603 -0.51991,0.78645 -0.59513,5.68572 l -0.0815,5.31064 1.53675,0.76974 c 0.84522,0.42335 1.62605,0.78181 1.73519,0.79657 0.10914,0.0148 0.19844,-2.67247 0.19844,-5.97161 z"
       id="path1" /></g></svg>
