<?xml version="1.0" encoding="UTF-8" standalone="no"?>
<!-- Created with Inkscape (http://www.inkscape.org/) -->

<svg
   width="44.939247mm"
   height="44.364712mm"
   viewBox="0 0 44.939247 44.364712"
   version="1.1"
   id="svg1"
   xml:space="preserve"
   inkscape:version="1.3.1 (9b9bdc1480, 2023-11-25, custom)"
   sodipodi:docname="menuAutocar.svg"
   xmlns:inkscape="http://www.inkscape.org/namespaces/inkscape"
   xmlns:sodipodi="http://sodipodi.sourceforge.net/DTD/sodipodi-0.dtd"
   xmlns="http://www.w3.org/2000/svg"
   xmlns:svg="http://www.w3.org/2000/svg"><sodipodi:namedview
     id="namedview1"
     pagecolor="#ffffff"
     bordercolor="#000000"
     borderopacity="0.25"
     inkscape:showpageshadow="2"
     inkscape:pageopacity="0.0"
     inkscape:pagecheckerboard="0"
     inkscape:deskcolor="#d1d1d1"
     inkscape:document-units="mm"
     showgrid="false"
     inkscape:zoom="0.40979237"
     inkscape:cx="231.82472"
     inkscape:cy="134.21431"
     inkscape:window-width="1366"
     inkscape:window-height="660"
     inkscape:window-x="0"
     inkscape:window-y="0"
     inkscape:window-maximized="1"
     inkscape:current-layer="layer1" /><defs
     id="defs1" /><g
     inkscape:label="Layer 1"
     inkscape:groupmode="layer"
     id="layer1"
     transform="translate(-43.988081,-112.91847)"><path
       style="fill:#000000"
       d="m 53.167439,156.5298 c -0.80046,-0.71521 -0.849335,-0.86958 -0.963395,-3.04271 l -0.120156,-2.28928 h -1.381022 c -2.419159,0 -2.256787,1.12941 -2.256787,-15.69739 0,-8.76873 -0.09832,-14.72969 -0.242943,-14.72969 -1.030141,0 -1.079973,0.20885 -1.079973,4.52622 v 4.20503 h -1.149618 c -1.887509,0 -2.055079,-0.37411 -1.967412,-4.39238 l 0.07432,-3.4066 0.727605,-0.34828 c 0.400182,-0.19155 0.727604,-0.50193 0.727604,-0.68971 0,-0.54202 0.843966,-1.13549 1.87766,-1.32035 0.831287,-0.14867 0.992172,-0.30554 1.27232,-1.24059 0.634067,-2.11633 2.948854,-3.91765 5.745894,-4.47133 0.709821,-0.14052 3.711301,-0.4001 6.669956,-0.57686 5.490806,-0.32805 13.940229,-0.0424 17.077878,0.57741 2.795939,0.55227 5.111738,2.35416 5.745894,4.47078 0.280148,0.93505 0.441032,1.09192 1.272319,1.24059 1.048336,0.18747 1.877661,0.77992 1.877661,1.34133 0,0.19933 0.299791,0.4764 0.666203,0.61571 0.937467,0.35642 1.18588,1.23896 1.18588,4.21307 0,2.22257 -0.07833,2.69251 -0.54837,3.29007 -0.44406,0.56453 -0.76995,0.69714 -1.713238,0.69714 h -1.164867 l -0.0727,-4.29948 c -0.07156,-4.23213 -0.08202,-4.3008 -0.668012,-4.38403 l -0.595313,-0.0846 -0.0041,14.76893 c -0.0024,8.84141 -0.104706,14.92815 -0.254841,15.16565 -0.161918,0.25613 -0.84024,0.44365 -1.914178,0.52916 l -1.663388,0.13244 -0.132292,2.30891 c -0.177316,3.09472 -0.558087,3.51193 -3.205258,3.51193 -1.718314,0 -1.918697,-0.0594 -2.506192,-0.74236 -0.565989,-0.658 -0.638549,-0.99624 -0.638549,-2.97656 v -2.23421 h -7.540575 -7.540625 v 1.97193 c 0,1.08456 -0.142242,2.28411 -0.316094,2.66567 -0.429905,0.94354 -1.511791,1.44782 -3.106176,1.44782 -1.090228,0 -1.484876,-0.1367 -2.17512,-0.75343 z m -1.556897,-7.83283 c 0.532665,-0.64182 0.07981,-1.51198 -0.737516,-1.41714 -0.785625,0.0912 -1.070682,0.80702 -0.564315,1.41715 0.406239,0.48949 0.895585,0.48948 1.301831,-1e-5 z m 18.663662,-0.54187 v -0.79375 l -3.902604,-0.0732 -3.902604,-0.0732 v 0.94019 0.94019 l 3.902604,-0.0732 3.902604,-0.0732 z m 11.76342,0.54187 c 0.532666,-0.64182 0.07981,-1.51198 -0.737516,-1.41714 -0.785625,0.0912 -1.070682,0.80702 -0.564314,1.41715 0.406239,0.48949 0.895584,0.48948 1.30183,-1e-5 z m -25.389462,-3.54624 c 0,-0.56203 -6.295215,-4.43228 -6.643268,-4.08423 -0.274641,0.27464 -0.379858,3.46096 -0.122775,3.71805 0.430374,0.43037 6.766043,0.77326 6.766043,0.36618 z m 24.027876,-3.4e-4 c 1.17161,-0.11737 2.023565,-0.3369 2.1592,-0.55636 0.257103,-0.416 0.04469,-3.20277 -0.270474,-3.54844 -0.316909,-0.3476 -6.602019,3.56049 -6.602019,4.10514 0,0.26883 2.027989,0.26869 4.713293,-3.4e-4 z m -11.112873,-5.88062 c 3.990051,-0.29404 7.527531,-0.90547 10.693171,-1.84824 l 1.799124,-0.5358 -0.06979,-8.52052 -0.06979,-8.52052 -15.478125,-0.069 c -14.316294,-0.0638 -15.50295,-0.0352 -15.808853,0.3813 -0.414169,0.5639 -0.478197,15.71882 -0.06964,16.48222 0.411754,0.76937 6.925613,2.22076 11.777448,2.62419 1.455208,0.12101 2.802116,0.23638 2.993128,0.25638 0.191012,0.02 2.096012,-0.0925 4.233333,-0.25001 z M 71.59712,116.4051 v -1.32291 h -5.291666 -5.291667 l -0.08378,1.02001 c -0.151402,1.84338 -0.363547,1.77712 5.435439,1.69758 l 5.23167,-0.0718 z"
       id="path31325" /></g></svg>
