<?xml version="1.0" encoding="UTF-8" standalone="no"?>
<!-- Created with Inkscape (http://www.inkscape.org/) -->

<svg
   width="93.611641mm"
   height="68.780991mm"
   viewBox="0 0 93.611641 68.780991"
   version="1.1"
   id="svg1"
   inkscape:version="1.3.1 (9b9bdc1480, 2023-11-25, custom)"
   sodipodi:docname="logoCG.svg"
   xmlns:inkscape="http://www.inkscape.org/namespaces/inkscape"
   xmlns:sodipodi="http://sodipodi.sourceforge.net/DTD/sodipodi-0.dtd"
   xmlns="http://www.w3.org/2000/svg"
   xmlns:svg="http://www.w3.org/2000/svg">
  <sodipodi:namedview
     id="namedview1"
     pagecolor="#ffffff"
     bordercolor="#000000"
     borderopacity="0.25"
     inkscape:showpageshadow="2"
     inkscape:pageopacity="0.0"
     inkscape:pagecheckerboard="0"
     inkscape:deskcolor="#d1d1d1"
     inkscape:document-units="mm"
     inkscape:zoom="0.40979237"
     inkscape:cx="176.91886"
     inkscape:cy="129.33379"
     inkscape:window-width="1366"
     inkscape:window-height="660"
     inkscape:window-x="0"
     inkscape:window-y="0"
     inkscape:window-maximized="1"
     inkscape:current-layer="layer1" />
  <defs
     id="defs1" />
  <g
     inkscape:label="Layer 1"
     inkscape:groupmode="layer"
     id="layer1"
     transform="translate(-58.208333,-114.03541)">
    <g
       id="g1"
       transform="translate(19.586604,14.232525)">
      <path
         style="fill:#445500"
         d="m 47.265234,167.89779 c -1.011366,-0.85101 -1.29213,-2.12842 -0.713674,-3.24703 0.494306,-0.95588 2.002067,-1.7569 2.888327,-1.53446 0.83627,0.20989 2.029382,1.17504 2.029382,1.64164 0,0.49809 -0.904495,0.48496 -1.322916,-0.0192 -0.381476,-0.45965 -1.395772,-0.51811 -2.134061,-0.12299 -0.674491,0.36098 -0.706682,2.03336 -0.04875,2.5328 0.640715,0.48637 1.106395,0.45311 2.251917,-0.16086 1.219053,-0.65337 1.253811,-0.65326 1.253811,0.004 0,0.68435 -1.45056,1.58132 -2.559387,1.58262 -0.515927,6.1e-4 -1.149947,-0.26015 -1.644648,-0.67641 z m 6.445171,0.079 c -0.08261,-0.32914 -0.114642,-1.49 -0.07119,-2.57969 0.0618,-1.54962 0.165474,-1.98126 0.475885,-1.98126 0.30574,0 0.427253,0.45567 0.529166,1.98437 l 0.132292,1.98438 0.923037,0.13229 c 0.601313,0.0862 0.953902,0.29368 1.011588,0.59531 0.07574,0.39603 -0.124085,0.46302 -1.381017,0.46302 -1.305604,0 -1.486326,-0.0668 -1.619764,-0.59842 z m 8.393326,0.0601 c -0.67874,-0.63235 -2.37507,-0.71265 -2.60128,-0.12314 -0.0838,0.21828 -0.39059,0.39687 -0.68184,0.39687 -0.66069,0 -0.5324,-0.63693 0.65273,-3.24071 1.15698,-2.54192 1.32292,-2.45803 3.21955,1.62771 0.71834,1.54746 0.40321,2.2638 -0.58916,1.33927 z m -1.10946,-2.0919 c 0,-0.66546 -0.42709,-0.92784 -0.63374,-0.38934 -0.25347,0.66054 -0.18989,0.90289 0.23686,0.90289 0.21828,0 0.39688,-0.2311 0.39688,-0.51355 z m 4.27568,2.30215 c -0.38359,-0.38359 -0.40903,-4.01388 -0.0331,-4.71641 0.33993,-0.63516 1.79096,-0.68898 2.91425,-0.10811 0.65564,0.33905 0.77927,0.56143 0.7722,1.38907 -0.005,0.54196 -0.18227,1.2152 -0.39475,1.49607 -0.33959,0.44889 -0.3378,0.56432 0.0148,0.95393 0.37614,0.41563 0.29383,1.31351 -0.12042,1.31351 -0.10318,0 -0.56414,-0.42532 -1.02437,-0.94515 -0.89362,-1.00936 -1.37726,-1.00265 -1.37726,0.0191 0,0.75635 -0.33022,1.01915 -0.75139,0.59798 z m 2.55122,-3.27547 c 0.053,-0.37151 -0.0906,-0.60544 -0.42544,-0.693 -0.70174,-0.18351 -1.37438,0.25053 -1.37438,0.88686 0,0.79238 1.68498,0.61089 1.79982,-0.19386 z m 3.07965,3.25542 c -0.19364,-0.49764 0.90267,-3.64071 1.59496,-4.5727 0.28024,-0.37727 0.48112,-0.43695 0.80292,-0.23856 0.46386,0.28596 1.98307,3.66329 1.98307,4.40852 0,0.70225 -0.47412,0.83182 -0.84875,0.23195 -0.48746,-0.78055 -2.20434,-0.747 -2.8595,0.0559 -0.45189,0.55379 -0.49881,0.5618 -0.6727,0.11491 z m 2.61476,-1.94265 c 0.2003,-0.20029 -0.3005,-0.88424 -0.64746,-0.88424 -0.1277,0 -0.23219,0.23813 -0.23219,0.52917 0,0.50844 0.51743,0.7173 0.87965,0.35507 z m 6.79327,1.7616 c -0.62965,-0.62965 -0.6484,-0.85405 -0.15161,-1.81473 0.21425,-0.41432 0.2855,-0.87905 0.16472,-1.07448 -0.32643,-0.52817 -0.0284,-1.27325 0.70029,-1.75071 0.54468,-0.35689 0.78926,-0.37691 1.41878,-0.11616 0.41835,0.17329 0.82894,0.53027 0.91242,0.79328 0.1865,0.58763 -0.10489,1.84613 -0.42745,1.84613 -0.12975,0 -0.2359,0.13364 -0.2359,0.29698 0,0.20632 0.12013,0.19728 0.3935,-0.0296 0.68427,-0.56789 1.09037,-0.15669 0.98072,0.99305 -0.0985,1.03252 -0.12705,1.05928 -1.30354,1.22053 -1.73977,0.23846 -1.86827,0.21937 -2.45193,-0.36429 z m 1.70126,-0.76377 c 0.19531,-0.31602 -0.55113,-0.9117 -0.88437,-0.70575 -0.14554,0.09 -0.19754,0.33833 -0.11557,0.55195 0.16441,0.42843 0.77241,0.52195 0.99994,0.1538 z m 0.28311,-2.41123 c 0.30858,-0.49928 -0.13483,-0.81101 -0.71326,-0.50145 -0.44009,0.23553 -0.47623,0.33974 -0.18238,0.52584 0.47993,0.30394 0.69637,0.29804 0.89564,-0.0244 z m 7.64646,2.80458 c -1.37466,-1.37466 -1.11776,-3.10512 0.61255,-4.12603 1.12955,-0.66645 1.57259,-0.66435 2.68315,0.0127 0.74937,0.45686 0.8701,0.66322 0.77343,1.32192 -0.0777,0.52972 -0.002,0.78056 0.23649,0.78056 0.49758,0 0.42471,1.08516 -0.11786,1.75497 -1.17475,1.45025 -2.88865,1.55497 -4.18776,0.25586 z m 2.95245,-0.53673 c 0.55675,-0.40974 0.61088,-0.35682 -0.83133,-0.81278 -0.63268,-0.20003 -0.29723,-0.78231 0.50543,-0.87733 0.39378,-0.0466 0.7072,-0.24959 0.7072,-0.45798 0,-0.49983 -1.22757,-0.78423 -2.08768,-0.48368 -0.56192,0.19635 -0.70635,0.43541 -0.77588,1.28423 -0.0623,0.76108 0.0407,1.1352 0.3813,1.38424 0.61255,0.44791 1.46266,0.43306 2.10096,-0.0367 z m 3.8738,1.11881 c -0.43692,-0.43691 -0.41903,-4.205 0.0228,-4.80928 0.25627,-0.35046 0.63203,-0.44464 1.52135,-0.3813 0.9766,0.0696 1.18103,0.17572 1.18103,0.61329 0,0.34379 -0.18538,0.53862 -0.52916,0.55614 -1.26819,0.0646 -1.45521,0.12554 -1.45521,0.47389 0,0.42659 0.56348,0.68976 1.47685,0.68976 1.134199,0 0.65098,0.96407 -0.55167,1.10061 -1.18982,0.13508 -1.03955,0.86335 0.1993,0.96589 0.77728,0.0643 0.99219,0.19327 0.99219,0.59531 0,0.43659 -0.18957,0.51319 -1.27,0.51319 -0.6985,0 -1.41288,-0.14287 -1.5875,-0.3175 z m 8.411079,0.11944 c -0.21975,-0.0445 -0.63647,-0.43446 -0.92604,-0.86662 -0.6193,-0.92425 -1.02287,-0.89134 -1.13939,0.0929 -0.0585,0.49385 -0.23806,0.7072 -0.59531,0.7072 -0.57491,0 -0.56215,0.0652 -0.51796,-2.64583 0.0384,-2.35635 0.35389,-2.76056 1.99033,-2.55006 1.88633,0.24265 2.58782,1.67601 1.55937,3.18628 -0.24502,0.3598 -0.26631,0.64753 -0.0744,1.00605 0.35051,0.65495 0.2072,1.17205 -0.29657,1.07008 z m -0.40811,-3.16839 c 0.16,-0.41697 -0.42746,-1.13146 -0.93031,-1.13146 -0.37047,0 -0.82966,0.80034 -0.68119,1.18725 0.21103,0.54994 1.39478,0.50895 1.6115,-0.0558 z m 2.90917,3.07736 c -0.0988,-0.15979 -0.0339,-0.6066 0.14409,-0.99291 0.17801,-0.3863 0.50299,-1.11909 0.72218,-1.62841 1.22617,-2.84913 1.6389,-2.98913 2.58342,-0.87631 0.37809,0.84577 0.83561,1.83542 1.0167,2.19922 0.33748,0.67799 0.30081,1.5875 -0.064,1.5875 -0.1123,0 -0.41968,-0.23812 -0.68307,-0.52916 -0.50033,-0.55286 -2.51354,-0.77223 -2.51354,-0.2739 0,0.42448 -0.99813,0.84994 -1.20578,0.51397 z m 2.79328,-2.07052 c 0,-0.51669 -0.33117,-1.07005 -0.5569,-0.93054 -0.39286,0.2428 -0.26595,1.17349 0.16002,1.17349 0.21828,0 0.39688,-0.10933 0.39688,-0.24295 z m 6.2346,1.43357 c -0.46652,-0.50932 -0.91418,-0.92604 -0.9948,-0.92604 -0.0806,0 -0.21981,0.36615 -0.30931,0.81366 -0.11824,0.5912 -0.29004,0.78933 -0.62838,0.72468 -0.67064,-0.12815 -0.83236,-4.17655 -0.1924,-4.8165 1.37136,-1.37137 4.70835,0.66266 3.60048,2.19463 -0.57458,0.79453 -0.64971,1.15402 -0.34362,1.64416 0.38893,0.62277 0.39478,1.29145 0.0113,1.29145 -0.16228,0 -0.67675,-0.41671 -1.14327,-0.92604 z m 0.32706,-2.30187 c 0.46157,-0.46157 0.39939,-0.61859 -0.3868,-0.9768 -0.569,-0.25925 -0.77419,-0.25102 -1.06806,0.0429 -0.20006,0.20006 -0.28711,0.56348 -0.19343,0.8076 0.19733,0.51422 1.18473,0.58991 1.64829,0.12635 z m 3.38852,2.8094 c -0.0883,-0.23018 -0.1606,-1.35709 -0.1606,-2.50423 0,-1.7913 0.0722,-2.12438 0.51177,-2.35961 1.33464,-0.71428 3.57633,0.20176 4.05867,1.65853 0.40692,1.22895 0.0131,2.52101 -0.94678,3.10629 -1.06884,0.65171 -3.22729,0.71343 -3.46306,0.099 z m 3.0144,-1.16899 c 0.55963,-0.55962 0.61697,-0.83626 0.36675,-1.76929 -0.18635,-0.69487 -1.40134,-1.19122 -2.04045,-0.83356 -0.54364,0.30423 -0.6363,2.74533 -0.11224,2.95679 0.6833,0.27572 1.27319,0.15881 1.78594,-0.35394 z m -84.793705,-9.25192 c -0.08755,-0.14166 0.113581,-0.32339 0.446954,-0.40385 1.147954,-0.27706 93.214171,-0.017 93.144151,0.26307 -0.0901,0.36029 -93.36872,0.5006 -93.591105,0.14078 z m 25.659336,-8.7846 c -4.35748,-1.07851 -5.85117,-1.67895 -8.598959,-3.45668 -3.813791,-2.4674 -7.002784,-6.70585 -8.612261,-11.44646 -1.604471,-4.72586 -1.607143,-12.48624 -0.0062,-17.87735 1.052783,-3.54511 3.320782,-7.36064 5.983654,-10.06653 3.96244,-4.02644 8.609916,-5.98614 14.815386,-6.247229 3.77745,-0.15892 6.23584,0.302699 9.39218,1.763629 1.02404,0.47398 2.18352,0.80881 2.80082,0.80881 0.95377,0 1.08996,-0.0876 1.4403,-0.92604 0.2581,-0.61772 0.56192,-0.92604 0.91254,-0.92604 0.28909,0 0.55106,0.0298 0.58215,0.0661 0.0311,0.0364 0.12039,3.75708 0.19844,8.26822 0.0781,4.51115 0.21438,8.02349 0.30298,7.80521 0.0886,-0.21828 0.30879,-0.87312 0.48933,-1.45521 0.45799,-1.47662 1.80305,-4.27195 2.73722,-5.68854 1.27047,-1.92657 4.92324,-5.36766 7.01115,-6.60485 5.97748,-3.541949 14.650649,-4.187729 20.822049,-1.55037 4.93914,2.11076 6.41419,2.08767 7.25107,-0.11349 0.3135,-0.82457 0.9481,-0.95314 1.30352,-0.2641 0.13135,0.25466 0.26113,1.35599 0.28838,2.4474 0.0273,1.0914 0.15902,3.11547 0.29282,4.49791 0.3101,3.20421 0.32532,7.33483 0.0277,7.51877 -0.3383,0.20908 -1.02478,-0.6561 -1.24226,-1.56564 -0.29994,-1.25444 -1.57583,-3.95241 -2.51391,-5.31586 -3.06455,-4.45417 -7.61228,-6.72268 -13.4771,-6.72268 -4.67791,0 -7.762809,1.1525 -10.610209,3.96394 -7.57986,7.48411 -6.81343,26.90167 1.40155,35.50775 1.62619,1.70361 3.143369,2.72024 5.322489,3.56648 1.74013,0.67576 2.19418,0.73769 5.34138,0.72853 3.10814,-0.009 3.57981,-0.0745 4.89479,-0.67951 2.03035,-0.93411 3.27999,-2.4099 3.95237,-4.66763 0.48598,-1.63182 0.54462,-2.52202 0.53713,-8.1533 -0.006,-4.5517 -0.0987,-6.439 -0.33073,-6.74128 -0.53113,-0.69177 -1.40007,-1.03172 -3.08824,-1.20817 -1.61882,-0.1692 -1.72757,-0.24448 -1.4391,-0.99622 0.14162,-0.36905 1.12037,-0.41851 8.28145,-0.41851 8.17989,0 8.75586,0.0624 8.75586,0.94892 0,0.17265 -0.56398,0.39849 -1.25328,0.50185 -1.62205,0.24325 -2.62731,0.77478 -2.88013,1.52289 -0.11119,0.32902 -0.1674,5.3168 -0.12491,11.08397 0.0782,10.61594 0.003,11.60695 -0.88205,11.60695 -0.49727,0 -0.68046,-0.60065 -0.68046,-2.23111 0,-2.77201 -0.822,-4.11889 -2.51377,-4.11889 -1.17347,0 -1.0327,-0.0861 -5.89589,3.60746 -3.28961,2.49845 -6.51117,3.53643 -10.97486,3.53607 -4.865159,-3.8e-4 -9.224229,-1.26965 -12.793039,-3.72507 -1.66198,-1.14347 -4.09671,-3.57956 -5.00316,-5.00596 -1.30746,-2.05743 -1.35943,-2.05289 -2.53475,0.22136 -1.98381,3.83867 -6.09196,7.07788 -10.16019,8.01114 -1.72831,0.39647 -8.169,0.52451 -9.52329,0.18931 z m 12.34753,-4.38739 c 3.35269,-1.20617 6.16893,-3.98768 7.28448,-7.19463 0.26793,-0.77024 0.23732,-1.16227 -0.19628,-2.51418 -1.29207,-4.02844 -1.69519,-10.53448 -0.91893,-14.83082 0.49705,-2.75098 0.49966,-2.71164 -0.19441,-2.92824 -0.86505,-0.26997 -0.98363,-0.5778 -0.98813,-2.56521 -0.008,-3.44298 -1.57143,-7.6085 -3.62805,-9.66512 -2.14112,-2.14111 -4.58685,-3.01349 -8.44843,-3.01349 -4.73442,0 -8.69969,2.00289 -11.33776,5.72679 -2.89465,4.08607 -4.096509,8.43547 -4.096984,14.82652 -4.77e-4,6.41103 1.185654,11.07174 3.901644,15.3309 2.43786,3.82298 6.09643,6.39029 10.37636,7.28134 1.98179,0.41259 6.53459,0.16202 8.24649,-0.45386 z"
         id="path1" />
    </g>
  </g>
</svg>
