<?xml version="1.0" encoding="UTF-8" standalone="no"?>
<!-- Created with Inkscape (http://www.inkscape.org/) -->

<svg
   width="278.50192mm"
   height="11.766361mm"
   viewBox="0 0 278.50192 11.766361"
   version="1.1"
   id="svg1"
   inkscape:version="1.3.1 (9b9bdc1480, 2023-11-25, custom)"
   sodipodi:docname="separador.svg"
   xmlns:inkscape="http://www.inkscape.org/namespaces/inkscape"
   xmlns:sodipodi="http://sodipodi.sourceforge.net/DTD/sodipodi-0.dtd"
   xmlns="http://www.w3.org/2000/svg"
   xmlns:svg="http://www.w3.org/2000/svg">
  <sodipodi:namedview
     id="namedview1"
     pagecolor="#ffffff"
     bordercolor="#000000"
     borderopacity="0.25"
     inkscape:showpageshadow="2"
     inkscape:pageopacity="0.0"
     inkscape:pagecheckerboard="0"
     inkscape:deskcolor="#d1d1d1"
     inkscape:document-units="mm"
     inkscape:zoom="3.2783389"
     inkscape:cx="531.97672"
     inkscape:cy="61.921602"
     inkscape:window-width="1366"
     inkscape:window-height="660"
     inkscape:window-x="0"
     inkscape:window-y="0"
     inkscape:window-maximized="1"
     inkscape:current-layer="layer1" />
  <defs
     id="defs1">
    <rect
       x="109.10155"
       y="53.993141"
       width="375.45901"
       height="70.79837"
       id="rect3" />
  </defs>
  <g
     inkscape:label="Layer 1"
     inkscape:groupmode="layer"
     id="layer1"
     transform="translate(-7.7150526,-6.5412712)">
    <path
       style="fill:#ffffff;stroke:#666666;stroke-width:0.265047;stroke-dasharray:none"
       id="path2"
       sodipodi:type="arc"
       sodipodi:cx="8.9413996"
       sodipodi:cy="12.304591"
       sodipodi:rx="1.0938234"
       sodipodi:ry="1.0938234"
       sodipodi:start="0"
       sodipodi:end="6.2803541"
       sodipodi:open="true"
       sodipodi:arc-type="arc"
       d="M 10.035223,12.304591 A 1.0938234,1.0938234 0 0 1 8.9421738,13.398414 1.0938234,1.0938234 0 0 1 7.8475772,12.30614 1.0938234,1.0938234 0 0 1 8.9390769,11.21077 1.0938234,1.0938234 0 0 1 10.035219,12.301494" />
    <path
       style="fill:#999999;stroke:#666666;stroke-width:0.347;stroke-dasharray:none"
       d="M 10.01549,12.388954 H 114.20408"
       id="path3" />
    <path
       style="font-size:64px;line-height:0.8;font-family:'Great Vibes';-inkscape-font-specification:'Great Vibes';text-align:center;text-anchor:middle;white-space:pre;fill:#333333;stroke-width:1.71213"
       d="m 140.76759,104.41581 q -2.368,0 -4.864,-0.512 -2.432,-0.512 -4.864,-1.536 -3.968,-1.728 -6.4,-4.543998 -2.432,-2.752 -3.52,-6.272 -1.088,-3.52 -1.088,-7.36 0,-4.032 0.96,-8.064 1.024,-4.032 2.816,-7.68 1.792,-3.712 4.032,-6.592 -0.448,-1.664 -0.768,-3.84 -0.256,-2.176 -0.256,-4.416 0,-3.392 0.768,-6.464 0.256,-0.896 0.896,-0.896 0.448,0 0.448,0.64 0,0.384 -0.064,0.576 -0.128,0.96 -0.256,1.984 -0.064,1.024 -0.064,2.112 0,2.176 0.256,4.288 0.256,2.112 0.576,3.904 4.672,-6.08 10.688,-9.024 6.08,-3.008 12.736,-3.008 1.728,0 3.328,0.192 5.12,0.576 8.384,2.56 3.264,1.92 4.8,4.736 1.6,2.816 1.6,5.952 0,3.072 -1.408,6.08 -1.408,3.008 -4.096,5.504 -2.688,2.432 -6.592,3.968 -3.84,1.472 -8.704,1.472 -1.088,0 -2.176,-0.064 -1.088,-0.064 -2.368,-0.256 -5.056,-0.768 -9.216,-3.264 -4.16,-2.496 -6.72,-7.68 -0.512,0.64 -1.408,2.624 -0.896,1.92 -1.792,4.672 -0.896,2.752 -1.536,6.016 -0.64,3.2 -0.64,6.464 0,3.136 0.832,6.08 0.832,2.88 2.88,5.056 2.048,2.239998 5.568,3.327998 1.728,0.512 3.584,0.768 1.856,0.256 3.776,0.256 3.712,0 7.36,-0.96 3.648,-0.96 6.784,-2.815998 4.16,-2.432 6.4,-5.632 2.24,-3.264 4.16,-7.296 0.256,-0.64 0.704,-0.64 0.32,0 0.32,0.448 0,0.32 -0.256,0.768 -1.344,2.816 -2.688,5.184 -1.344,2.304 -3.136,4.288 -1.792,1.984 -4.544,3.904 -3.136,2.175998 -7.04,3.583998 -3.904,1.408 -8.192,1.408 z m 8.96,-27.903998 q 4.416,0 7.808,-1.28 3.392,-1.344 5.696,-3.456 2.368,-2.176 3.52,-4.8 1.216,-2.624 1.216,-5.312 0,-2.624 -1.216,-4.992 -1.216,-2.368 -3.712,-4.032 -2.432,-1.728 -6.272,-2.24 -1.408,-0.192 -2.816,-0.192 -4.352,0 -8.576,1.856 -4.16,1.792 -7.872,5.12 -3.712,3.264 -6.592,7.68 2.24,5.568 6.272,8.192 4.096,2.624 9.344,3.264 1.664,0.192 3.2,0.192 z m 18.94392,21.504 q -2.688,0 -3.648,-1.408 -0.96,-1.472 -0.96,-3.456 0,-2.048 0.576,-4.224 0.576,-2.176 1.024,-3.648 1.024,-3.584 2.56,-7.616 1.6,-4.096 3.456,-8 1.92,-3.968 3.776,-7.104 1.472,-2.496 3.136,-3.712 1.728,-1.28 3.008,-1.28 1.024,0 1.6,0.768 0.64,0.704 0.64,2.176 0,1.024 -0.384,2.432 -0.32,1.408 -1.152,3.2 -2.24,4.992 -5.376,9.984 -3.072,4.992 -7.808,9.344 -0.256,0.832 -0.704,1.984 -0.384,1.088 -0.704,2.24 -0.384,1.728 -0.384,2.944 0,1.984 0.768,3.008 0.832,0.96 1.984,0.96 1.024,0 2.176,-0.704 1.152,-0.768 2.176,-2.176 1.536,-2.24 2.752,-4.544 1.28,-2.368 1.92,-3.648 0.384,-0.704 0.832,-0.704 0.32,0 0.32,0.384 0,0.32 -0.192,0.704 -0.576,1.28 -1.536,3.328 -0.896,1.984 -2.304,4.032 -1.344,1.984 -3.264,3.392 -1.856,1.344 -4.288,1.344 z m 0.96,-14.592 q 2.304,-2.368 4.48,-5.44 2.176,-3.136 4.032,-6.464 1.92,-3.392 3.2,-6.4 0.448,-0.96 0.704,-2.112 0.32,-1.152 0.32,-1.92 0,-0.896 -0.448,-0.896 -0.256,0 -0.768,0.512 -0.512,0.448 -1.344,1.6 -1.216,1.6 -2.688,4.352 -1.408,2.752 -2.88,5.888 -1.472,3.136 -2.688,6.08 -1.216,2.88 -1.92,4.8 z m 23.29596,14.592 q -0.704,0.064 -1.6,-0.32 -0.896,-0.384 -1.6,-1.408 -0.64,-1.024 -0.64,-2.88 0,-1.536 0.576,-3.712 -0.768,1.216 -1.984,3.008 -1.216,1.728 -2.624,3.072 -1.216,1.152 -2.304,1.664 -1.088,0.512 -1.984,0.512 -1.664,0 -2.688,-1.472 -1.024,-1.536 -1.024,-3.968 0,-2.56 1.28,-5.824 1.28,-3.264 4.16,-6.784 1.856,-2.24 4.48,-3.584 2.688,-1.408 5.248,-1.408 1.472,0 2.816,0.512 1.344,0.448 2.368,1.536 0.448,0.448 0.448,1.024 0,0.384 -0.32,0.64 -0.32,0.256 -0.832,0.128 -0.704,-2.24 -3.008,-2.24 -1.088,0 -2.496,0.704 -2.176,1.152 -4.544,3.776 -2.304,2.624 -4.032,5.44 -0.256,0.384 -0.832,1.472 -0.512,1.088 -1.024,2.432 -0.512,1.344 -0.704,2.624 -0.064,0.384 -0.064,0.576 0,0.128 0,0.448 0,2.112 1.6,2.112 1.92,0 4.352,-2.816 1.664,-2.048 3.008,-4.288 1.344,-2.24 2.752,-4.8 0.96,-1.728 1.792,-2.88 0.832,-1.152 2.368,-1.152 0.704,0 1.408,0.192 0.704,0.192 1.472,0.064 -0.512,0.512 -1.408,1.92 -0.832,1.408 -1.792,3.2 -0.96,1.792 -1.728,3.648 -0.768,1.856 -1.088,3.2 -0.064,0.384 -0.192,1.088 -0.064,0.704 -0.064,1.024 0,1.792 1.024,1.792 1.024,0 2.176,-1.216 1.216,-1.216 2.368,-3.008 1.152,-1.792 2.112,-3.584 0.96,-1.856 1.536,-3.008 0.256,-0.64 0.768,-0.64 0.32,0 0.32,0.448 0,0.192 -0.192,0.704 -0.768,1.6 -1.856,3.648 -1.088,1.984 -2.368,3.904 -1.28,1.856 -2.688,3.136 -1.344,1.216 -2.752,1.344 z m 16.31995,-0.128 q -1.216,0 -2.432,-0.96 -1.216,-1.024 -1.216,-3.264 0,-1.728 0.832,-3.968 0.768,-2.176 2.048,-4.224 1.344,-2.048 1.92,-3.328 0.192,-0.512 0.192,-0.896 0,-1.152 -1.472,-1.664 -1.408,-0.512 -3.712,-0.576 l -0.768,2.112 q -0.704,2.048 -1.984,4.8 -1.216,2.752 -2.752,5.312 -1.472,2.56 -3.072,4.096 -0.128,0.128 -0.32,0.128 -0.256,0 -0.32,-0.32 -0.128,-0.32 0.256,-0.768 2.496,-3.328 4.48,-7.36 1.984,-4.096 3.328,-8.32 1.408,-4.224 2.048,-7.808 0.192,-1.024 0.704,-1.472 0.512,-0.512 1.088,-0.512 0.832,0 1.536,0.832 0.704,0.768 0.704,2.24 0,0.256 -0.064,0.576 0,0.32 -0.064,0.64 -0.256,1.344 -1.536,2.56 -1.216,1.152 -1.984,1.728 0.64,0.064 1.344,0.128 0.704,0 1.536,0 3.008,0 5.952,-0.384 0.128,0.384 0.128,0.576 0,0.832 -0.512,2.112 -0.448,1.28 -0.96,2.304 -0.256,0.576 -1.024,2.112 -0.768,1.472 -1.664,3.392 -0.896,1.856 -1.536,3.712 -0.576,1.792 -0.576,3.072 0,1.664 1.28,1.664 0.96,0 2.112,-1.216 1.152,-1.28 2.24,-3.072 1.152,-1.856 2.048,-3.584 0.96,-1.792 1.472,-2.816 0.256,-0.64 0.704,-0.64 0.256,0 0.256,0.448 0,0.256 -0.192,0.768 -0.704,1.472 -1.664,3.328 -0.96,1.856 -2.176,3.648 -1.152,1.792 -2.56,3.136 -1.344,1.28 -2.944,1.664 -0.192,0.064 -0.704,0.064 z m 22.91198,0.128 q -0.704,0.064 -1.6,-0.32 -0.896,-0.384 -1.6,-1.408 -0.64,-1.024 -0.64,-2.88 0,-1.536 0.576,-3.712 -0.768,1.216 -1.984,3.008 -1.216,1.728 -2.624,3.072 -1.216,1.152 -2.304,1.664 -1.088,0.512 -1.984,0.512 -1.664,0 -2.688,-1.472 -1.024,-1.536 -1.024,-3.968 0,-2.56 1.28,-5.824 1.28,-3.264 4.16,-6.784 1.856,-2.24 4.48,-3.584 2.688,-1.408 5.248,-1.408 1.472,0 2.816,0.512 1.344,0.448 2.368,1.536 0.448,0.448 0.448,1.024 0,0.384 -0.32,0.64 -0.32,0.256 -0.832,0.128 -0.704,-2.24 -3.008,-2.24 -1.088,0 -2.496,0.704 -2.176,1.152 -4.544,3.776 -2.304,2.624 -4.032,5.44 -0.256,0.384 -0.832,1.472 -0.512,1.088 -1.024,2.432 -0.512,1.344 -0.704,2.624 -0.064,0.384 -0.064,0.576 0,0.128 0,0.448 0,2.112 1.6,2.112 1.92,0 4.352,-2.816 1.664,-2.048 3.008,-4.288 1.344,-2.24 2.752,-4.8 0.96,-1.728 1.792,-2.88 0.832,-1.152 2.368,-1.152 0.704,0 1.408,0.192 0.704,0.192 1.472,0.064 -0.512,0.512 -1.408,1.92 -0.832,1.408 -1.792,3.2 -0.96,1.792 -1.728,3.648 -0.768,1.856 -1.088,3.2 -0.064,0.384 -0.192,1.088 -0.064,0.704 -0.064,1.024 0,1.792 1.024,1.792 1.024,0 2.176,-1.216 1.216,-1.216 2.368,-3.008 1.152,-1.792 2.112,-3.584 0.96,-1.856 1.536,-3.008 0.256,-0.64 0.768,-0.64 0.32,0 0.32,0.448 0,0.192 -0.192,0.704 -0.768,1.6 -1.856,3.648 -1.088,1.984 -2.368,3.904 -1.28,1.856 -2.688,3.136 -1.344,1.216 -2.752,1.344 z m 110.27131,23.871998 q -2.176,0 -3.712,-0.576 -2.432,-0.896 -3.52,-2.112 -1.152,-1.152 -1.152,-2.496 0,-1.728 1.728,-3.648 1.664,-1.856 4.672,-3.648 3.008,-1.728 6.912,-3.072 3.904,-1.28 8.32,-1.92 1.984,-0.32 4.352,-0.512 2.432,-0.192 4.864,-0.384 2.496,-0.128 4.48,-0.128 2.368,-4.031998 3.84,-7.615998 1.536,-3.584 2.688,-8.256 l 0.256,-1.024 q -1.216,1.152 -3.456,2.816 -2.176,1.6 -5.12,3.264 -2.88,1.6 -6.208,2.688 -3.264,1.088 -6.72,1.088 -2.688,0 -5.184,-0.832 -2.688,-0.96 -4.864,-3.2 -2.112,-2.304 -3.392,-5.632 -1.216,-3.392 -1.216,-7.488 0,-3.008 0.768,-6.4 0.768,-3.456 2.496,-7.04 -1.984,-2.048 -3.136,-4.544 -1.088,-2.496 -1.088,-5.12 0,-2.304 0.96,-4.544 0.96,-2.304 3.008,-4.416 0.576,-0.64 1.088,-0.64 0.256,0 0.256,0.256 0,0.384 -0.448,0.896 -1.472,1.792 -2.176,3.776 -0.704,1.984 -0.704,3.968 0,2.24 0.832,4.416 0.896,2.176 2.496,4.032 0.32,-0.64 0.64,-1.28 0.384,-0.64 0.768,-1.28 3.072,-4.992 7.488,-8.576 4.48,-3.584 9.536,-5.504 5.056,-1.984 9.856,-1.984 0.832,0 1.6,0.064 0.832,0.064 1.664,0.192 6.208,0.96 9.28,4.16 3.072,3.2 3.072,7.168 0,2.752 -1.536,5.504 -1.472,2.752 -4.544,5.056 -3.008,2.304 -7.552,3.712 -4.48,1.408 -10.432,1.536 -4.672,0.064 -9.216,-1.152 -4.544,-1.28 -7.68,-3.328 -1.6,3.392 -2.368,6.656 -0.704,3.2 -0.704,6.016 0,4.736 1.984,8.128 1.984,3.392 5.504,4.544 1.024,0.32 2.048,0.448 1.088,0.128 2.112,0.128 2.88,0 5.76,-0.832 2.944,-0.896 5.44,-2.304 2.496,-1.408 4.224,-2.944 1.792,-1.6 2.368,-2.944 1.472,-3.328 2.88,-4.608 1.472,-1.344 2.624,-1.344 0.96,0 1.6,0.896 0.704,0.832 0.512,2.304 -0.64,5.312 -2.944,10.304 -2.24,4.992 -5.824,10.815998 4.352,0.064 7.808,0.448 3.52,0.448 6.336,1.152 0.768,0.192 1.024,0.448 0.32,0.32 0.32,0.512 0,0.448 -0.768,0.448 -0.384,0 -1.088,-0.192 -1.472,-0.384 -3.904,-0.704 -2.432,-0.256 -5.248,-0.384 -2.752,-0.128 -5.312,-0.128 -2.688,3.84 -6.4,6.912 -3.648,3.136 -7.744,5.376 -4.096,2.24 -8.064,3.392 -3.904,1.216 -7.04,1.216 z m 20.032,-51.199998 q 0.704,0 1.408,0 0.704,-0.064 1.408,-0.128 6.464,-0.64 10.944,-2.944 4.544,-2.368 6.848,-5.568 2.368,-3.2 2.368,-6.272 0,-3.008 -2.304,-5.312 -2.24,-2.368 -6.912,-3.072 -0.64,-0.128 -1.088,-0.128 -0.384,0 -1.088,0 -4.16,0 -8.64,1.984 -4.416,1.984 -8.448,5.568 -3.968,3.52 -6.848,8.192 -0.704,1.216 -1.088,1.856 -0.384,0.64 -0.896,1.536 2.624,1.984 6.336,3.136 3.776,1.152 8,1.152 z m -20.096,49.215998 q 2.496,0 5.888,-0.96 3.392,-0.896 7.04,-2.816 3.712,-1.856 7.104,-4.608 3.392,-2.752 5.952,-6.4 -3.072,0.064 -6.08,0.256 -2.944,0.256 -5.888,0.768 -3.136,0.512 -6.528,1.728 -3.328,1.28 -6.208,2.944 -2.816,1.664 -4.608,3.328 -1.728,1.728 -1.728,3.136 0,0.832 0.704,1.472 0.768,0.64 2.368,0.96 0.896,0.192 1.984,0.192 z m 47.80798,-21.823998 q -2.368,0 -4.288,-1.536 -1.856,-1.536 -1.856,-4.672 0,-2.88 1.408,-6.144 1.408,-3.328 3.584,-5.824 1.856,-2.176 4.16,-3.584 2.304,-1.408 4.352,-1.408 1.408,0 2.432,0.768 1.088,0.832 1.088,2.368 0,1.6 -1.216,3.52 -1.216,1.92 -3.456,3.584 -0.96,0.704 -2.432,1.344 -1.472,0.64 -2.944,1.088 -1.472,0.384 -2.432,0.384 -0.32,0.768 -0.64,2.048 -0.256,1.28 -0.256,2.624 0,1.6 0.64,2.88 0.64,1.28 2.368,1.28 2.112,0 3.84,-1.216 1.728,-1.216 3.072,-3.008 1.344,-1.856 2.24,-3.712 0.96,-1.856 1.536,-3.136 0.384,-0.896 1.024,-0.896 0.32,0 0.32,0.32 0,0.256 -0.192,0.64 -0.896,1.92 -1.92,4.096 -1.024,2.112 -2.432,4.032 -1.408,1.856 -3.392,3.008 -1.92,1.152 -4.608,1.152 z m -1.152,-11.264 q 0.896,0 3.008,-0.64 2.112,-0.704 3.84,-2.176 1.664,-1.472 2.56,-3.2 0.896,-1.792 0.896,-3.008 0,-1.408 -1.024,-1.408 -0.768,0 -2.112,1.024 -1.344,1.024 -3.328,3.456 -1.216,1.536 -2.304,3.328 -1.088,1.792 -1.536,2.624 z m 20.09595,11.072 q -1.216,0 -2.432,-0.96 -1.216,-1.024 -1.216,-3.264 0,-1.728 0.832,-3.968 0.768,-2.176 2.048,-4.224 1.344,-2.048 1.92,-3.328 0.192,-0.512 0.192,-0.896 0,-1.152 -1.472,-1.664 -1.408,-0.512 -3.712,-0.576 l -0.768,2.112 q -0.704,2.048 -1.984,4.8 -1.216,2.752 -2.752,5.312 -1.472,2.56 -3.072,4.096 -0.128,0.128 -0.32,0.128 -0.256,0 -0.32,-0.32 -0.128,-0.32 0.256,-0.768 2.496,-3.328 4.48,-7.36 1.984,-4.096 3.328,-8.32 1.408,-4.224 2.048,-7.808 0.192,-1.024 0.704,-1.472 0.512,-0.512 1.088,-0.512 0.832,0 1.536,0.832 0.704,0.768 0.704,2.24 0,0.256 -0.064,0.576 0,0.32 -0.064,0.64 -0.256,1.344 -1.536,2.56 -1.216,1.152 -1.984,1.728 0.64,0.064 1.344,0.128 0.704,0 1.536,0 3.008,0 5.952,-0.384 0.128,0.384 0.128,0.576 0,0.832 -0.512,2.112 -0.448,1.28 -0.96,2.304 -0.256,0.576 -1.024,2.112 -0.768,1.472 -1.664,3.392 -0.896,1.856 -1.536,3.712 -0.576,1.792 -0.576,3.072 0,1.664 1.28,1.664 0.96,0 2.112,-1.216 1.152,-1.28 2.24,-3.072 1.152,-1.856 2.048,-3.584 0.96,-1.792 1.472,-2.816 0.256,-0.64 0.704,-0.64 0.256,0 0.256,0.448 0,0.256 -0.192,0.768 -0.704,1.472 -1.664,3.328 -0.96,1.856 -2.176,3.648 -1.152,1.792 -2.56,3.136 -1.344,1.28 -2.944,1.664 -0.192,0.064 -0.704,0.064 z m 22.91198,0.128 q -0.704,0.064 -1.6,-0.32 -0.896,-0.384 -1.6,-1.408 -0.64,-1.024 -0.64,-2.88 0,-1.536 0.576,-3.712 -0.768,1.216 -1.984,3.008 -1.216,1.728 -2.624,3.072 -1.216,1.152 -2.304,1.664 -1.088,0.512 -1.984,0.512 -1.664,0 -2.688,-1.472 -1.024,-1.536 -1.024,-3.968 0,-2.56 1.28,-5.824 1.28,-3.264 4.16,-6.784 1.856,-2.24 4.48,-3.584 2.688,-1.408 5.248,-1.408 1.472,0 2.816,0.512 1.344,0.448 2.368,1.536 0.448,0.448 0.448,1.024 0,0.384 -0.32,0.64 -0.32,0.256 -0.832,0.128 -0.704,-2.24 -3.008,-2.24 -1.088,0 -2.496,0.704 -2.176,1.152 -4.544,3.776 -2.304,2.624 -4.032,5.44 -0.256,0.384 -0.832,1.472 -0.512,1.088 -1.024,2.432 -0.512,1.344 -0.704,2.624 -0.064,0.384 -0.064,0.576 0,0.128 0,0.448 0,2.112 1.6,2.112 1.92,0 4.352,-2.816 1.664,-2.048 3.008,-4.288 1.344,-2.24 2.752,-4.8 0.96,-1.728 1.792,-2.88 0.832,-1.152 2.368,-1.152 0.704,0 1.408,0.192 0.704,0.192 1.472,0.064 -0.512,0.512 -1.408,1.92 -0.832,1.408 -1.792,3.2 -0.96,1.792 -1.728,3.648 -0.768,1.856 -1.088,3.2 -0.064,0.384 -0.192,1.088 -0.064,0.704 -0.064,1.024 0,1.792 1.024,1.792 1.024,0 2.176,-1.216 1.216,-1.216 2.368,-3.008 1.152,-1.792 2.112,-3.584 0.96,-1.856 1.536,-3.008 0.256,-0.64 0.768,-0.64 0.32,0 0.32,0.448 0,0.192 -0.192,0.704 -0.768,1.6 -1.856,3.648 -1.088,1.984 -2.368,3.904 -1.28,1.856 -2.688,3.136 -1.344,1.216 -2.752,1.344 z m 16.31995,-0.128 q -1.216,0 -2.432,-0.96 -1.216,-1.024 -1.216,-3.264 0,-1.728 0.832,-3.968 0.768,-2.176 2.048,-4.224 1.344,-2.048 1.92,-3.328 0.192,-0.512 0.192,-0.896 0,-1.152 -1.472,-1.664 -1.408,-0.512 -3.712,-0.576 l -0.768,2.112 q -0.704,2.048 -1.984,4.8 -1.216,2.752 -2.752,5.312 -1.472,2.56 -3.072,4.096 -0.128,0.128 -0.32,0.128 -0.256,0 -0.32,-0.32 -0.128,-0.32 0.256,-0.768 2.496,-3.328 4.48,-7.36 1.984,-4.096 3.328,-8.32 1.408,-4.224 2.048,-7.808 0.192,-1.024 0.704,-1.472 0.512,-0.512 1.088,-0.512 0.832,0 1.536,0.832 0.704,0.768 0.704,2.24 0,0.256 -0.064,0.576 0,0.32 -0.064,0.64 -0.256,1.344 -1.536,2.56 -1.216,1.152 -1.984,1.728 0.64,0.064 1.344,0.128 0.704,0 1.536,0 3.008,0 5.952,-0.384 0.128,0.384 0.128,0.576 0,0.832 -0.512,2.112 -0.448,1.28 -0.96,2.304 -0.256,0.576 -1.024,2.112 -0.768,1.472 -1.664,3.392 -0.896,1.856 -1.536,3.712 -0.576,1.792 -0.576,3.072 0,1.664 1.28,1.664 0.96,0 2.112,-1.216 1.152,-1.28 2.24,-3.072 1.152,-1.856 2.048,-3.584 0.96,-1.792 1.472,-2.816 0.256,-0.64 0.704,-0.64 0.256,0 0.256,0.448 0,0.256 -0.192,0.768 -0.704,1.472 -1.664,3.328 -0.96,1.856 -2.176,3.648 -1.152,1.792 -2.56,3.136 -1.344,1.28 -2.944,1.664 -0.192,0.064 -0.704,0.064 z m 23.23198,-0.064 q -1.728,0 -2.88,-1.728 -0.32,-0.512 -0.576,-1.344 -0.256,-0.832 -0.256,-1.856 0,-0.576 0.064,-1.152 0.064,-0.64 0.256,-1.28 -0.896,1.408 -2.112,3.136 -1.152,1.664 -2.688,2.944 -1.472,1.216 -3.328,1.216 -0.64,0 -1.344,-0.192 -1.728,-0.512 -2.496,-1.792 -0.704,-1.28 -0.704,-3.072 0,-1.984 0.768,-4.352 0.832,-2.368 2.048,-4.608 1.28,-2.24 2.624,-3.84 1.92,-2.24 4.416,-3.584 2.496,-1.344 5.056,-1.344 2.304,0 4.352,1.216 0.96,-1.792 2.048,-3.968 1.088,-2.24 2.176,-4.416 1.088,-2.176 1.92,-3.968 0.832,-1.856 1.28,-2.816 0.96,-2.24 1.792,-2.816 0.896,-0.64 2.112,-0.64 0.704,0 1.536,0.192 0.896,0.128 1.728,0.064 -0.384,0.384 -1.6,2.24 -1.152,1.792 -2.752,4.608 -1.6,2.816 -3.456,6.208 -1.792,3.328 -3.584,6.784 -1.728,3.392 -3.264,6.464 -1.472,3.008 -2.368,5.184 -0.256,0.512 -0.768,2.112 -0.448,1.536 -0.448,2.688 0,0.832 0.384,1.472 0.384,0.576 1.28,0.576 1.216,0 2.432,-1.216 1.28,-1.28 2.432,-3.072 1.152,-1.856 2.048,-3.584 0.896,-1.792 1.344,-2.816 0.32,-0.704 0.768,-0.704 0.384,0 0.384,0.576 0,0.064 0,0.256 0,0.128 -0.128,0.32 -0.576,1.344 -1.6,3.328 -0.96,1.984 -2.304,3.968 -1.344,1.984 -3.008,3.328 -1.664,1.28 -3.584,1.28 z m -11.072,-1.92 q 0.896,0 2.24,-0.96 1.344,-1.024 2.88,-3.2 1.792,-2.56 4.096,-6.4 2.304,-3.84 4.544,-8.128 -0.832,-0.768 -1.92,-0.768 -1.792,0 -4.032,1.664 -2.176,1.664 -4.288,4.224 -2.048,2.56 -3.456,5.184 -0.96,1.792 -1.408,3.264 -0.384,1.472 -0.384,2.56 0,2.56 1.728,2.56 z"
       id="text3"
       transform="matrix(0.1534636,0,0,0.1534636,100.10999,-0.39771008)"
       aria-label="Clara      Gerard" />
    <path
       style="fill:#ffffff;stroke:#666666;stroke-width:0.26583;stroke-dasharray:none"
       id="path4"
       sodipodi:type="arc"
       sodipodi:cx="115.30396"
       sodipodi:cy="12.304591"
       sodipodi:rx="1.0970571"
       sodipodi:ry="1.0970571"
       sodipodi:start="0"
       sodipodi:end="6.2803541"
       sodipodi:open="true"
       sodipodi:arc-type="arc"
       d="m 116.40102,12.304591 a 1.0970571,1.0970571 0 0 1 -1.09628,1.097057 1.0970571,1.0970571 0 0 1 -1.09783,-1.095504 1.0970571,1.0970571 0 0 1 1.09472,-1.098607 1.0970571,1.0970571 0 0 1 1.09939,1.093948" />
    <g
       id="g7">
      <path
         style="fill:#ffffff;stroke:#666666;stroke-width:0.265047;stroke-dasharray:none"
         id="path5"
         sodipodi:type="arc"
         sodipodi:cx="8.9413996"
         sodipodi:cy="12.304591"
         sodipodi:rx="1.0938234"
         sodipodi:ry="1.0938234"
         sodipodi:start="0"
         sodipodi:end="6.2803541"
         sodipodi:open="true"
         sodipodi:arc-type="arc"
         d="M 10.035223,12.304591 A 1.0938234,1.0938234 0 0 1 8.9421738,13.398414 1.0938234,1.0938234 0 0 1 7.8475772,12.30614 1.0938234,1.0938234 0 0 1 8.9390769,11.21077 1.0938234,1.0938234 0 0 1 10.035219,12.301494" />
      <path
         style="fill:#999999;stroke:#666666;stroke-width:0.347;stroke-dasharray:none"
         d="M 10.01549,12.388954 H 114.20408"
         id="path6" />
      <path
         style="fill:#ffffff;stroke:#666666;stroke-width:0.26583;stroke-dasharray:none"
         id="path7"
         sodipodi:type="arc"
         sodipodi:cx="115.30396"
         sodipodi:cy="12.304591"
         sodipodi:rx="1.0970571"
         sodipodi:ry="1.0970571"
         sodipodi:start="0"
         sodipodi:end="6.2803541"
         sodipodi:open="true"
         sodipodi:arc-type="arc"
         d="m 116.40102,12.304591 a 1.0970571,1.0970571 0 0 1 -1.09628,1.097057 1.0970571,1.0970571 0 0 1 -1.09783,-1.095504 1.0970571,1.0970571 0 0 1 1.09472,-1.098607 1.0970571,1.0970571 0 0 1 1.09939,1.093948" />
    </g>
    <g
       id="g10"
       transform="translate(169.68303)">
      <path
         style="fill:#ffffff;stroke:#666666;stroke-width:0.265047;stroke-dasharray:none"
         id="path8"
         sodipodi:type="arc"
         sodipodi:cx="8.9413996"
         sodipodi:cy="12.304591"
         sodipodi:rx="1.0938234"
         sodipodi:ry="1.0938234"
         sodipodi:start="0"
         sodipodi:end="6.2803541"
         sodipodi:open="true"
         sodipodi:arc-type="arc"
         d="M 10.035223,12.304591 A 1.0938234,1.0938234 0 0 1 8.9421738,13.398414 1.0938234,1.0938234 0 0 1 7.8475772,12.30614 1.0938234,1.0938234 0 0 1 8.9390769,11.21077 1.0938234,1.0938234 0 0 1 10.035219,12.301494" />
      <path
         style="fill:#999999;stroke:#666666;stroke-width:0.347;stroke-dasharray:none"
         d="M 10.01549,12.388954 H 114.20408"
         id="path9" />
      <path
         style="fill:#ffffff;stroke:#666666;stroke-width:0.26583;stroke-dasharray:none"
         id="path10"
         sodipodi:type="arc"
         sodipodi:cx="115.30396"
         sodipodi:cy="12.304591"
         sodipodi:rx="1.0970571"
         sodipodi:ry="1.0970571"
         sodipodi:start="0"
         sodipodi:end="6.2803541"
         sodipodi:open="true"
         sodipodi:arc-type="arc"
         d="m 116.40102,12.304591 a 1.0970571,1.0970571 0 0 1 -1.09628,1.097057 1.0970571,1.0970571 0 0 1 -1.09783,-1.095504 1.0970571,1.0970571 0 0 1 1.09472,-1.098607 1.0970571,1.0970571 0 0 1 1.09939,1.093948" />
    </g>
    <path
       style="fill:#000000;stroke-width:0.317551"
       d="m 146.44327,14.63823 c -0.87823,-0.112114 -1.81449,-0.521234 -2.54979,-1.114188 l -0.18563,-0.149697 -0.23836,0.119615 c -0.83255,0.417796 -1.44028,0.579461 -2.06815,0.550161 -0.34903,-0.01629 -0.51369,-0.05651 -0.78403,-0.191538 -0.45788,-0.22869 -0.72058,-0.618332 -0.80916,-1.200184 -0.0805,-0.52857 -0.006,-0.935547 0.24877,-1.363012 0.53699,-0.900293 1.64973,-1.7950568 2.65469,-2.1346587 0.4587,-0.1550031 0.97342,-0.208647 1.37957,-0.1437808 0.21394,0.034169 0.5953,0.1670541 0.76484,0.2665048 0.22891,0.1342733 0.48818,0.4110573 0.59659,0.6368647 0.051,0.106145 0.10313,0.199749 0.11593,0.208006 0.0128,0.0083 0.0907,0.02191 0.173,0.03036 0.19003,0.01947 0.65793,0.133577 0.95504,0.232907 0.74184,0.248017 1.33215,0.600407 1.7611,1.051308 0.72829,0.765565 0.88319,1.812086 0.36472,2.464158 -0.27315,0.343537 -0.79526,0.619543 -1.35207,0.714761 -0.2098,0.03587 -0.8177,0.04914 -1.02706,0.02242 z m 1.206,-0.18605 c 0.7373,-0.192782 1.2438,-0.655816 1.33977,-1.224801 0.0282,-0.167429 0.0194,-0.522927 -0.0143,-0.577521 -0.008,-0.01331 -0.0438,0.01343 -0.0791,0.05945 -0.30904,0.403221 -1.05562,0.543791 -2.12672,0.400426 -0.21101,-0.02826 -0.93901,-0.229739 -1.21826,-0.337188 -0.62761,-0.241492 -1.18286,-0.584923 -1.55895,-0.964245 -0.32712,-0.329935 -0.43326,-0.52373 -0.45057,-0.822663 l -0.0112,-0.193719 -0.0707,0.06772 c -0.11337,0.108612 -0.2803,0.369556 -0.33665,0.526242 -0.0646,0.17968 -0.0857,0.512325 -0.0455,0.71846 0.1354,0.694735 0.83171,1.421641 1.84848,1.929726 0.75328,0.376416 1.28492,0.504278 2.03636,0.489756 0.38592,-0.0075 0.4789,-0.01715 0.68733,-0.07165 z m -0.7597,-0.595237 c -0.89643,-0.06532 -2.01026,-0.413121 -2.63615,-0.823165 -0.10315,-0.06758 -0.18306,-0.127367 -0.17756,-0.132857 0.0153,-0.01531 0.29354,0.06112 0.47151,0.129487 0.73873,0.283796 1.32327,0.417634 2.06067,0.471824 0.75718,0.05564 1.50032,-0.05321 2.15718,-0.315982 0.0696,-0.02785 0.12658,-0.04268 0.12649,-0.03292 -3.1e-4,0.05001 -0.22444,0.268524 -0.37806,0.368807 -0.4093,0.267194 -0.96887,0.382554 -1.62408,0.33481 z m -4.70303,-0.008 c 0.37147,-0.08462 0.59067,-0.164923 1.03272,-0.378327 l 0.39461,-0.190492 -0.0689,-0.08293 c -0.0379,-0.04561 -0.0769,-0.08372 -0.0867,-0.08467 -0.01,-9.53e-4 -0.0709,0.03096 -0.13586,0.07094 -0.17831,0.10972 -0.54333,0.274716 -0.7912,0.357648 -0.34051,0.113921 -0.59132,0.158633 -0.88864,0.158413 -0.32249,-2.41e-4 -0.52388,-0.05159 -0.65687,-0.167495 l -0.091,-0.07928 0.0679,-0.02623 c 0.0374,-0.01442 0.11007,-0.02623 0.1616,-0.02623 0.34784,0 1.02872,-0.146769 1.43672,-0.309695 0.22261,-0.0889 0.61381,-0.261557 0.63056,-0.278305 0.009,-0.0088 -0.26946,-0.733892 -0.28919,-0.753619 -0.008,-0.0076 -0.15054,0.06872 -0.31776,0.169487 -0.42441,0.255771 -0.69857,0.389016 -1.02389,0.497615 -0.33491,0.1118 -0.63766,0.167912 -0.90597,0.167912 -0.23416,0 -0.38569,-0.04069 -0.57417,-0.15419 -0.15695,-0.09451 -0.16124,-0.08939 -0.10431,0.124476 0.0599,0.224919 0.17001,0.424477 0.32672,0.591998 0.23204,0.248052 0.51363,0.394675 0.86605,0.450945 0.22533,0.03598 0.73188,0.0071 1.01753,-0.05794 z m 5.86277,-0.849036 c 0.12506,-0.02118 0.23542,-0.04603 0.24524,-0.05523 0.0211,-0.01978 -0.22352,-0.334407 -0.43962,-0.565416 -0.5265,-0.562831 -1.23867,-0.96935 -2.03888,-1.163838 -0.13268,-0.03225 -0.25276,-0.05865 -0.26684,-0.05866 -0.0141,-1.5e-5 -0.0394,0.0538 -0.0563,0.119597 -0.0455,0.177485 -0.29203,0.661849 -0.44638,0.876968 l -0.1352,0.188438 0.24728,0.116837 c 0.47471,0.224289 1.35961,0.497062 1.79122,0.552151 0.28805,0.03677 0.851,0.03121 1.09943,-0.01083 z m 0.53613,-0.187562 c 0.069,-0.04472 0.15807,-0.116027 0.19787,-0.158451 0.0647,-0.06891 0.0723,-0.09305 0.0713,-0.226272 -9.5e-4,-0.125258 -0.0173,-0.182115 -0.10261,-0.355209 -0.40639,-0.824734 -1.49425,-1.503983 -2.81781,-1.759402 -0.38646,-0.07458 -0.34732,-0.112461 -0.34732,0.336179 v 0.385053 l 0.0905,0.02369 c 0.0498,0.01302 0.17731,0.04564 0.28345,0.07248 0.93788,0.23715 1.69164,0.737354 2.30385,1.528866 0.0995,0.128656 0.18417,0.234026 0.18812,0.234156 0.004,1.3e-4 0.0637,-0.03635 0.13268,-0.08107 z m -0.19454,-0.217992 c -0.0902,-0.150853 -0.0951,-0.199819 -0.0323,-0.323004 0.0251,-0.0493 0.0589,-0.138385 0.0749,-0.197968 l 0.0292,-0.108329 0.0822,0.0964 c 0.11345,0.133067 0.16896,0.325252 0.13077,0.45272 -0.0302,0.10081 -0.12148,0.2106 -0.17509,0.2106 -0.0174,0 -0.0667,-0.05869 -0.10966,-0.130421 z m -1.01885,-1.260844 c -0.0862,-0.01985 -0.40232,-0.100419 -0.70239,-0.179079 -0.30006,-0.07866 -0.64202,-0.163047 -0.7599,-0.187524 l -0.21433,-0.0445 0.009,-0.178368 c 0.005,-0.0981 0.0123,-0.182233 0.0166,-0.186955 0.0176,-0.01899 0.57417,0.154488 0.88955,0.277276 0.35676,0.138897 0.84664,0.38222 0.96681,0.480214 l 0.0724,0.05901 -0.0603,-0.0019 c -0.0332,-9.53e-4 -0.13088,-0.01823 -0.21712,-0.03806 z m -6.35382,1.402224 c 0.43422,-0.07557 1.03647,-0.322089 1.52254,-0.62322 0.3392,-0.210136 0.35991,-0.231714 0.37889,-0.394703 0.0351,-0.30194 0.15259,-0.585888 0.34234,-0.827745 0.24803,-0.316132 0.75059,-0.664498 1.02565,-0.710972 0.0999,-0.01686 0.18476,-0.10535 0.15199,-0.158372 -0.025,-0.040551 -0.58306,-0.0074 -0.90039,0.05353 -1.31753,0.252888 -2.48517,1.203084 -2.99459,2.436939 -0.083,0.201051 -0.0887,0.22743 -0.0525,0.24204 0.0713,0.02874 0.30502,0.02096 0.52604,-0.0175 z m -0.595,-0.282357 c 0.71283,-1.484152 1.82289,-2.317235 3.3832,-2.5390281 0.13671,-0.019434 0.32998,-0.03568 0.42949,-0.036102 0.29533,-0.00127 0.2895,0.0033 0.28945,-0.2260742 -4e-5,-0.2168843 -0.0406,-0.3302754 -0.1447,-0.4048301 -0.092,-0.065886 -0.47618,-0.1411801 -0.72031,-0.1411801 -1.06211,0 -2.45412,0.8228799 -3.28668,1.9429115 -0.28408,0.382166 -0.42572,0.694405 -0.46637,1.028062 -0.0166,0.136652 0.0152,0.215675 0.0469,0.116097 0.0279,-0.08782 0.30548,-0.436153 0.40511,-0.50833 0.053,-0.03841 0.12112,-0.06984 0.15132,-0.06984 0.0523,0 0.0481,0.01362 -0.0857,0.283456 -0.11118,0.22414 -0.29006,0.667445 -0.29006,0.718844 0,0.012 0.12675,0.08104 0.15116,0.08232 0.0102,6.35e-4 0.0719,-0.110308 0.13724,-0.246309 z m 4.52793,-0.386612 c 0.34352,-0.482008 0.51509,-0.97299 0.51509,-1.474025 0,-0.401191 -0.12029,-0.7123246 -0.37201,-0.9622151 -0.13726,-0.1362644 -0.33711,-0.2767808 -0.45843,-0.322324 -0.0389,-0.014607 -0.0432,-0.00994 -0.0267,0.028992 0.0109,0.025531 0.0249,0.1461371 0.0311,0.2680354 0.009,0.1820426 0.002,0.2531391 -0.0419,0.3980467 -0.10084,0.333725 -0.29781,0.655604 -0.69522,1.136091 l -0.15525,0.187701 0.13886,0.181287 c 0.2058,0.268692 0.56594,0.57887 0.61156,0.526712 0.0478,-0.05465 0.34201,-0.495802 0.42491,-0.637106 0.0506,-0.08624 0.16169,-0.319644 0.24687,-0.518669 l 0.15489,-0.361862 -0.0129,0.24124 c -0.0233,0.435084 -0.18071,0.868617 -0.46044,1.267817 -0.0909,0.129771 -0.12228,0.192998 -0.1045,0.210775 0.0407,0.04071 0.0724,0.01429 0.20402,-0.170487 z m -0.92944,-1.336348 c 0.0892,-0.09429 0.26245,-0.342241 0.26245,-0.37551 0,-0.07009 -0.23488,0.04535 -0.33199,0.16317 -0.0788,0.09558 -0.13487,0.250662 -0.11211,0.30999 0.019,0.04954 0.0667,0.02391 0.18165,-0.09765 z"
       id="path1" />
  </g>
</svg>
