<?xml version="1.0" encoding="UTF-8" standalone="no"?>
<!-- Created with Inkscape (http://www.inkscape.org/) -->

<svg
   width="125.79434mm"
   height="80.796051mm"
   viewBox="0 0 125.79434 80.796051"
   version="1.1"
   id="svg1"
   xml:space="preserve"
   inkscape:version="1.3.1 (9b9bdc1480, 2023-11-25, custom)"
   sodipodi:docname="menuPlat.svg"
   xmlns:inkscape="http://www.inkscape.org/namespaces/inkscape"
   xmlns:sodipodi="http://sodipodi.sourceforge.net/DTD/sodipodi-0.dtd"
   xmlns="http://www.w3.org/2000/svg"
   xmlns:svg="http://www.w3.org/2000/svg"><sodipodi:namedview
     id="namedview1"
     pagecolor="#ffffff"
     bordercolor="#000000"
     borderopacity="0.25"
     inkscape:showpageshadow="2"
     inkscape:pageopacity="0.0"
     inkscape:pagecheckerboard="0"
     inkscape:deskcolor="#d1d1d1"
     inkscape:document-units="mm"
     showgrid="false"
     inkscape:zoom="0.40979237"
     inkscape:cx="253.78706"
     inkscape:cy="43.924683"
     inkscape:window-width="1366"
     inkscape:window-height="660"
     inkscape:window-x="0"
     inkscape:window-y="0"
     inkscape:window-maximized="1"
     inkscape:current-layer="layer1" /><defs
     id="defs1" /><g
     inkscape:label="Layer 1"
     inkscape:groupmode="layer"
     id="layer1"
     transform="translate(-38.079058,-137.14714)"><path
       style="fill:#000000"
       d="m 86.087567,217.77805 c -2.97356,-0.40298 -8.271254,-1.95409 -11.258288,-3.29631 -8.329664,-3.74291 -15.620787,-10.79051 -19.839101,-19.17646 -0.870278,-1.7301 -2.572376,-6.61243 -3.02386,-8.67369 -1.315778,-6.00723 -1.218433,-13.65988 0.244006,-19.18217 0.485824,-1.83451 2.116673,-6.25594 2.851438,-7.7306 3.064775,-6.15095 8.28731,-12.04756 14.026241,-15.83661 7.327583,-4.83793 15.436557,-7.0852 24.143314,-6.69091 6.803183,0.30809 12.547353,1.95362 18.266093,5.23269 16.77111,9.61638 24.43521,29.66354 18.34388,47.98248 -1.87059,5.62555 -5.44819,11.41835 -9.63618,15.60276 -6.05614,6.05097 -12.83013,9.66375 -21.417543,11.42265 -2.291709,0.46939 -10.200092,0.68495 -12.7,0.34617 z m 12.36191,-1.82271 c 14.487423,-2.47674 26.410193,-13.35516 30.607083,-27.9261 1.37854,-4.78606 1.77838,-11.83734 0.94699,-16.70024 -0.52368,-3.06306 -1.9412,-7.57325 -3.31432,-10.54537 -5.21987,-11.29838 -16.50296,-19.75389 -28.970537,-21.71044 -2.295394,-0.36021 -3.892624,-0.42435 -7.662376,-0.30766 -6.810812,0.21082 -10.019436,1.01334 -16.139583,4.0367 -4.221734,2.08555 -7.137216,4.24404 -10.628718,7.86905 -5.323686,5.52723 -8.492344,11.60203 -10.170601,19.49858 -0.845506,3.97828 -0.845506,10.83839 0,14.81667 1.169403,5.50228 2.952732,9.8379 5.876743,14.2875 2.114918,3.21836 7.404013,8.53967 10.556951,10.62124 4.979304,3.28734 10.604876,5.49422 16.012861,6.28177 3.063406,0.44611 9.641209,0.33294 12.885507,-0.2217 z m -11.56816,-1.3575 c -13.1435,-1.80557 -24.074296,-9.91487 -29.444695,-21.84431 -1.063532,-2.36246 -2.055103,-5.49778 -2.749245,-8.69304 -0.461647,-2.12505 -0.461647,-10.83954 0,-12.96459 1.895628,-8.72593 5.628716,-15.51722 11.48826,-20.8996 3.545874,-3.25713 9.003666,-6.48111 13.595428,-8.03097 5.523176,-1.86425 13.001176,-2.31491 18.884212,-1.13804 3.640013,0.72816 7.203193,2.00924 10.480173,3.76795 9.87774,5.30127 17.06431,15.2948 19.0611,26.5061 0.57627,3.23555 0.57627,9.31815 0,12.55371 -2.70625,15.19464 -14.46544,27.28563 -29.408983,30.23878 -3.327697,0.65763 -9.030678,0.89904 -11.90625,0.50401 z m 10.551012,-1.69953 c 14.372281,-2.50632 25.556421,-13.11524 28.944021,-27.45538 0.62677,-2.65317 0.7016,-3.49202 0.7016,-7.86474 0,-4.37272 -0.0748,-5.21156 -0.7016,-7.86473 -1.51318,-6.40547 -4.0173,-11.20731 -8.48179,-16.26442 -4.92492,-5.57867 -12.71722,-9.84034 -20.462231,-11.19096 -2.919316,-0.50909 -8.889378,-0.51483 -11.776683,-0.0113 -13.265192,2.31326 -23.916283,11.39124 -28.120532,23.96728 -1.319451,3.94683 -1.765531,6.84701 -1.752877,11.39628 0.01267,4.5552 0.465059,7.47982 1.752877,11.33203 4.174196,12.48614 14.733974,21.55234 27.890995,23.94608 2.741257,0.49873 9.172572,0.50403 12.00622,0.01 z M 89.38995,198.45272 c -8.59309,-0.70787 -16.015285,-7.04829 -18.292141,-15.6261 -0.823497,-3.10243 -0.826556,-7.44918 -0.0074,-10.49686 2.031282,-7.55728 7.741922,-13.18883 15.36931,-15.15644 2.746624,-0.70853 7.347567,-0.71118 10.078877,-0.006 7.254124,1.87346 12.830954,7.25375 15.122774,14.58983 0.53864,1.72416 0.61794,2.50481 0.60475,5.95313 -0.0137,3.57056 -0.086,4.18111 -0.72082,6.08541 -1.39742,4.19177 -4.0729,8.02271 -7.30689,10.46252 -4.327946,3.26512 -9.250014,4.65547 -14.848473,4.1943 z m 6.035334,-1.70361 c 4.139663,-0.82871 8.676106,-3.6145 11.321546,-6.95247 1.47955,-1.86686 3.14007,-5.18653 3.72953,-7.45595 0.60233,-2.31898 0.60233,-7.20601 0,-9.525 -1.75524,-6.7577 -7.08894,-12.18142 -13.937751,-14.17297 -2.58143,-0.75065 -7.623808,-0.69995 -10.464983,0.10522 -6.207125,1.75906 -11.066774,6.47192 -13.27819,12.87713 -0.667075,1.93213 -0.730786,2.45113 -0.730786,5.95312 0,4.1147 0.34543,5.70632 1.921276,8.85258 1.710458,3.41503 5.24539,6.94536 8.712509,8.70118 1.245784,0.63089 4.221326,1.55952 5.902674,1.84216 1.568067,0.26359 4.938631,0.15246 6.824175,-0.225 z m 44.523806,19.27424 c -2.21886,-1.16772 -2.45752,-2.28974 -2.12764,-10.00245 0.49868,-11.65897 1.07385,-21.97208 1.32067,-23.68021 0.13668,-0.94588 0.25087,-4.58289 0.25375,-8.08224 l 0.005,-6.36245 -1.09029,-1.04588 c -0.59966,-0.57524 -1.4331,-1.51023 -1.85208,-2.07777 -0.75393,-1.02123 -0.76162,-1.06905 -0.74475,-4.63021 0.009,-1.97908 0.10941,-5.73089 0.22229,-8.33737 0.19418,-4.48348 0.23765,-4.76528 0.80602,-5.22552 0.80086,-0.6485 1.23296,-0.61346 2.00938,0.16296 0.61666,0.61666 0.65037,0.81358 0.66803,3.9026 0.0118,2.06396 0.10172,3.05974 0.24599,2.72401 0.12506,-0.29104 0.23575,-1.80245 0.24598,-3.35868 0.0169,-2.56663 0.0758,-2.89607 0.63471,-3.5458 0.71638,-0.83284 1.65129,-0.75564 2.55157,0.2107 0.48942,0.52533 0.53649,0.92354 0.53649,4.53881 0,2.17962 0.0893,3.874 0.19843,3.76527 0.10914,-0.10873 0.25797,-1.99143 0.33073,-4.18379 0.13194,-3.97545 0.13424,-3.98755 0.8599,-4.52828 l 0.7276,-0.54218 0.72761,0.5416 c 0.92252,0.68669 1.00004,1.30834 1.26548,10.14785 0.23263,7.74679 0.305,7.40773 -2.15142,10.0797 l -1.44476,1.57153 0.11314,7.60059 c 0.0622,4.18033 0.23451,9.14841 0.38285,11.04018 0.4536,5.78432 1.16372,22.258 1.06649,24.7408 -0.0978,2.49858 -0.41265,3.22656 -1.86374,4.30996 -0.97883,0.7308 -2.78105,0.85392 -3.89767,0.26627 z m 3.38097,-1.758 c 0.83693,-0.89087 1.09417,-2.06846 0.95457,-4.36984 -0.0675,-1.11239 -0.31374,-6.96362 -0.54724,-13.00273 -0.2335,-6.03912 -0.50635,-11.39693 -0.60632,-11.90625 -0.17848,-0.90929 -0.20548,-0.92604 -1.49284,-0.92604 h -1.31108 l -0.17816,3.0427 c -0.43488,7.42663 -1.05666,23.80514 -0.95175,25.07017 0.15433,1.86108 0.92336,2.71108 2.45283,2.71108 0.80947,0 1.25137,-0.16284 1.67999,-0.61909 z M 142.837,175.52767 c -0.0288,-3.74716 -0.0388,-7.11067 -0.0223,-7.47448 0.0188,-0.41226 0.67725,-1.38878 1.74784,-2.59204 l 1.71773,-1.93058 -0.0264,-2.56733 c -0.036,-3.50688 -0.34698,-4.51488 -0.58793,-1.90588 -0.14331,1.55167 -0.30463,2.08534 -0.73984,2.4474 -0.73725,0.61333 -1.69758,0.5863 -2.35003,-0.0661 -0.49488,-0.49488 -0.52943,-0.88491 -0.53322,-6.01927 -0.002,-3.01956 -0.1031,-5.6463 -0.22416,-5.8372 -0.12323,-0.19432 -0.28586,2.24851 -0.36947,5.54982 l -0.14935,5.89691 -0.69957,0.60174 c -0.89264,0.76782 -1.33159,0.75802 -2.1373,-0.0477 -0.61558,-0.61559 -0.64943,-0.81092 -0.64943,-3.74826 0,-1.70436 -0.069,-3.02981 -0.15338,-2.94545 -0.31394,0.31394 -0.59292,7.99265 -0.31004,8.53377 0.15214,0.29104 1.04444,1.34716 1.98288,2.34694 l 1.70625,1.81777 -0.1932,7.3765 -0.19319,7.3765 h 1.11823 1.11824 z m 12.17834,40.40818 c -0.50723,-0.11898 -1.24553,-0.57815 -1.64066,-1.02038 -1.12552,-1.25967 -1.35755,-2.59625 -1.17668,-6.7779 0.0881,-2.03729 0.34126,-8.16901 0.56252,-13.62604 0.22126,-5.45703 0.51514,-10.45766 0.65307,-11.1125 0.13793,-0.65485 0.3281,-4.40532 0.42259,-8.33438 l 0.1718,-7.14375 -1.37332,-1.03819 c -1.74483,-1.31905 -3.00789,-2.97277 -3.72306,-4.87457 -0.71785,-1.90895 -0.78549,-5.51066 -0.14983,-7.97786 0.97348,-3.77838 3.24135,-7.32849 5.30806,-8.30921 1.0299,-0.48872 3.0973,-0.5552 3.93566,-0.12656 1.08977,0.5572 2.86533,2.48333 3.75195,4.07014 1.63269,2.92208 2.11407,4.87834 2.11595,8.59896 0.002,4.19834 -0.36683,5.10472 -3.19684,7.85329 l -1.99621,1.93876 0.11688,7.87012 c 0.0643,4.32857 0.24565,9.83465 0.40305,12.23575 0.69932,10.66847 1.12927,23.52583 0.82454,24.65751 -0.34588,1.28449 -2.02033,3.12373 -2.84385,3.12373 -0.29626,0 -0.69722,0.0471 -0.89102,0.10471 -0.1938,0.0576 -0.76737,0.007 -1.2746,-0.11163 z m 2.35331,-1.70039 c 1.32819,-0.68683 1.4475,-1.43471 1.26136,-7.9065 -0.18431,-6.40827 -0.94663,-21.81979 -1.10354,-22.30967 -0.14375,-0.44884 -1.60789,-0.69952 -2.20844,-0.37811 -0.58167,0.3113 -0.52895,-0.29847 -1.23774,14.31615 -0.21542,4.4418 -0.39168,9.65995 -0.39168,11.59587 v 3.51987 l 0.7734,0.77339 c 0.86326,0.86326 1.75798,0.983 2.90664,0.389 z m -0.24045,-39.41479 v -7.25544 l 2.33379,-2.33571 c 2.01393,-2.01558 2.39971,-2.54943 2.81473,-3.89516 1.61662,-5.24189 -2.30941,-14.71242 -6.09906,-14.71242 -0.86592,0 -2.49093,0.95059 -3.31004,1.93629 -1.81265,2.18132 -2.87322,5.61674 -2.87926,9.32663 -0.006,3.83871 0.41958,4.86702 3.06574,7.40316 l 2.22201,2.12962 v 7.32923 7.32924 h 0.92604 0.92605 z M 39.890757,212.96094 c -1.985607,-1.32647 -2.132517,-2.67189 -1.424752,-13.04803 0.219222,-3.21388 0.5015,-9.22653 0.627287,-13.36146 0.225133,-7.40072 0.219931,-7.5325 -0.333303,-8.44409 -0.549267,-0.90505 -0.56302,-1.19891 -0.606769,-12.96458 -0.04918,-13.22706 0.141389,-17.1958 0.924707,-19.25733 1.567169,-4.12445 4.892285,-5.04315 5.87325,-1.62272 0.323329,1.12738 0.350902,32.33449 0.02956,33.45495 -0.317181,1.10594 0.09384,16.47636 0.629505,23.54072 0.535248,7.05888 0.469978,9.33588 -0.297299,10.37147 -1.431917,1.93267 -3.691373,2.48732 -5.422186,1.33107 z m 3.844209,-1.76055 c 1.038668,-1.08414 1.073974,-1.93921 0.426895,-10.33886 -0.308286,-4.00183 -0.634171,-9.92519 -0.724189,-13.16302 l -0.16367,-5.88698 h -1.230473 -1.230473 l -0.322892,7.49823 c -0.177591,4.12403 -0.447201,8.9163 -0.599134,10.64948 -0.151932,1.73319 -0.297366,4.83668 -0.323185,6.89665 -0.0455,3.63 -0.02718,3.76656 0.594488,4.43178 0.939094,1.00487 2.564327,0.96516 3.572633,-0.0873 z M 42.76369,179.76101 c 0.07111,-0.21656 -0.17303,-0.33073 -0.707199,-0.33073 -0.564141,0 -0.815799,0.12785 -0.815799,0.41445 0,0.5042 1.354395,0.42975 1.522998,-0.0837 z m 0.794067,-18.7514 c 0.06138,-15.05138 0.02622,-16.73563 -0.355975,-17.05282 -0.621068,-0.51544 -1.699749,0.16017 -2.338822,1.46487 -1.132315,2.31169 -1.201306,3.32546 -1.205635,17.71591 -0.0048,15.82283 -0.172132,14.78491 2.362535,14.65073 l 1.46979,-0.0778 z"
       id="path1" /></g></svg>
