<?xml version="1.0" encoding="UTF-8" standalone="no"?>
<!-- Created with Inkscape (http://www.inkscape.org/) -->

<svg
   width="29.445858mm"
   height="17.850357mm"
   viewBox="0 0 29.445858 17.850357"
   version="1.1"
   id="svg1"
   xml:space="preserve"
   inkscape:version="1.3.1 (9b9bdc1480, 2023-11-25, custom)"
   sodipodi:docname="menuAnells.svg"
   xmlns:inkscape="http://www.inkscape.org/namespaces/inkscape"
   xmlns:sodipodi="http://sodipodi.sourceforge.net/DTD/sodipodi-0.dtd"
   xmlns="http://www.w3.org/2000/svg"
   xmlns:svg="http://www.w3.org/2000/svg"
   xmlns:rdf="http://www.w3.org/1999/02/22-rdf-syntax-ns#"
   xmlns:cc="http://creativecommons.org/ns#"
   xmlns:dc="http://purl.org/dc/elements/1.1/"><sodipodi:namedview
     id="namedview1"
     pagecolor="#ffffff"
     bordercolor="#000000"
     borderopacity="0.25"
     inkscape:showpageshadow="2"
     inkscape:pageopacity="0.0"
     inkscape:pagecheckerboard="0"
     inkscape:deskcolor="#d1d1d1"
     inkscape:document-units="mm"
     showguides="true"
     inkscape:zoom="1.1590678"
     inkscape:cx="129.41434"
     inkscape:cy="119.92395"
     inkscape:window-width="1366"
     inkscape:window-height="660"
     inkscape:window-x="0"
     inkscape:window-y="0"
     inkscape:window-maximized="1"
     inkscape:current-layer="layer1" /><defs
     id="defs1" /><g
     inkscape:label="Layer 1"
     inkscape:groupmode="layer"
     id="layer1"
     transform="translate(-64.237552,-125.68611)"><path
       style="fill:#000000"
       d="m 85.229675,143.49198 c -2.76565,-0.35306 -5.71402,-1.64142 -8.02954,-3.50869 l -0.58457,-0.47141 -0.75062,0.37668 c -2.6218,1.31568 -4.53558,1.82478 -6.51281,1.73251 -1.09912,-0.0513 -1.61765,-0.17796 -2.46899,-0.60317 -1.441921,-0.72017 -2.269177,-1.94719 -2.548146,-3.7795 -0.253422,-1.66452 -0.01951,-2.94613 0.783406,-4.29226 1.69104,-2.83511 5.19518,-5.65281 8.3599,-6.72225 1.44448,-0.48812 3.06538,-0.65705 4.34439,-0.45278 0.67372,0.1076 1.87468,0.52607 2.40858,0.83925 0.72083,0.42284 1.53732,1.29446 1.8787,2.00555 0.16047,0.33426 0.32476,0.62903 0.36508,0.65503 0.0403,0.026 0.28548,0.069 0.5448,0.0956 0.59841,0.0613 2.07188,0.42065 3.0075,0.73345 2.33614,0.78103 4.19508,1.89074 5.54588,3.31067 2.293476,2.41084 2.781256,5.70644 1.148536,7.75988 -0.860176,1.08183 -2.504336,1.951 -4.257796,2.25085 -0.66066,0.11297 -2.57501,0.15476 -3.2343,0.0706 z m 3.79781,-0.58589 c 2.32183,-0.60709 3.916826,-2.06523 4.219056,-3.85702 0.0889,-0.52725 0.0612,-1.64675 -0.0451,-1.81867 -0.0259,-0.0419 -0.13794,0.0423 -0.24898,0.18722 -0.9732,1.26978 -3.324266,1.71245 -6.697246,1.26098 -0.6645,-0.089 -2.95704,-0.72347 -3.83644,-1.06184 -1.97641,-0.76048 -3.72493,-1.84198 -4.90927,-3.0365 -1.03014,-1.039 -1.36439,-1.64928 -1.41889,-2.59065 l -0.0353,-0.61004 -0.2226,0.21326 c -0.357,0.34203 -0.88268,1.16377 -1.06013,1.65719 -0.20349,0.56583 -0.26986,1.61336 -0.14334,2.2625 0.42639,2.18779 2.61911,4.47689 5.82103,6.0769 2.37217,1.18537 4.04634,1.58802 6.41271,1.54229 1.2153,-0.0235 1.50811,-0.054 2.16447,-0.22562 z m -2.39238,-1.87446 c -2.82295,-0.2057 -6.33049,-1.30096 -8.30148,-2.59223 -0.32484,-0.21282 -0.57648,-0.40109 -0.55918,-0.41838 0.0482,-0.0482 0.9244,0.19247 1.48484,0.40777 2.32635,0.8937 4.16712,1.31517 6.48925,1.48582 2.38443,0.17522 4.72466,-0.16757 6.793166,-0.99506 0.21936,-0.0877 0.39862,-0.13441 0.39835,-0.10368 -10e-4,0.15747 -0.70679,0.84561 -1.190546,1.16141 -1.28892,0.84142 -3.05108,1.2047 -5.1144,1.05435 z m -14.81031,-0.0252 c 1.1698,-0.26649 1.86009,-0.51936 3.25216,-1.19139 l 1.24264,-0.59988 -0.21706,-0.26116 c -0.11938,-0.14364 -0.24218,-0.26364 -0.27289,-0.26665 -0.0307,-0.003 -0.22323,0.0975 -0.42783,0.2234 -0.56154,0.34552 -1.71101,0.86511 -2.49159,1.12627 -1.07228,0.35875 -1.86213,0.49955 -2.7984,0.49886 -1.01556,-7.6e-4 -1.64975,-0.16247 -2.06856,-0.52746 l -0.28648,-0.24966 0.21386,-0.0826 c 0.11763,-0.0454 0.34663,-0.0826 0.5089,-0.0826 1.09537,0 3.23955,-0.46219 4.52436,-0.97526 0.70105,-0.27995 1.93296,-0.82367 1.9857,-0.87641 0.0277,-0.0277 -0.84854,-2.3111 -0.91067,-2.37322 -0.0238,-0.0238 -0.47408,0.21639 -1.00066,0.53373 -1.33651,0.80545 -2.19988,1.22505 -3.22435,1.56704 -1.05466,0.35207 -2.00804,0.52877 -2.85299,0.52877 -0.737384,0 -1.214562,-0.12814 -1.808105,-0.48556 -0.49424,-0.29762 -0.507759,-0.28149 -0.328476,0.39199 0.18855,0.70829 0.535374,1.33672 1.028858,1.86426 0.730723,0.78114 1.617483,1.24287 2.727303,1.42007 0.70956,0.1133 2.30474,0.0225 3.20428,-0.18247 z m 18.46244,-2.6737 c 0.39385,-0.0667 0.74138,-0.14495 0.77229,-0.17394 0.0664,-0.0623 -0.70389,-1.05308 -1.3844,-1.78055 -1.658,-1.77241 -3.90069,-3.05258 -6.42064,-3.66504 -0.41783,-0.10155 -0.79596,-0.18468 -0.84029,-0.18474 -0.0443,-5e-5 -0.12405,0.16943 -0.17715,0.37662 -0.14325,0.55892 -0.91963,2.08423 -1.40568,2.76166 l -0.42577,0.59341 0.7787,0.36793 c 1.49492,0.70631 4.28154,1.5653 5.64074,1.73878 0.9071,0.11578 2.67988,0.0983 3.4622,-0.0341 z m 1.688346,-0.59065 c 0.21736,-0.14084 0.49775,-0.36538 0.6231,-0.49898 0.20358,-0.217 0.22755,-0.29304 0.22454,-0.71255 -0.003,-0.39445 -0.0545,-0.5735 -0.32314,-1.11859 -1.279746,-2.59717 -4.705536,-4.73619 -8.873556,-5.54053 -1.21699,-0.23486 -1.09375,-0.35415 -1.09375,1.05866 v 1.21257 l 0.28489,0.0746 c 0.15668,0.041 0.55837,0.14371 0.89263,0.22823 2.95348,0.74681 5.32714,2.322 7.25505,4.81455 0.31337,0.40515 0.57996,0.73697 0.59241,0.73738 0.0125,4.1e-4 0.20048,-0.11448 0.417826,-0.25531 z m -0.612636,-0.68648 c -0.28414,-0.47505 -0.29955,-0.62925 -0.10165,-1.01717 0.0792,-0.15525 0.18535,-0.43579 0.23587,-0.62342 l 0.0919,-0.34114 0.25882,0.30358 c 0.357246,0.41904 0.532066,1.02425 0.411796,1.42566 -0.0951,0.31746 -0.382556,0.6632 -0.551386,0.6632 -0.0548,0 -0.2102,-0.18482 -0.34531,-0.41071 z m -3.20845,-3.97052 c -0.27159,-0.0625 -1.26694,-0.31623 -2.21189,-0.56394 -0.94494,-0.24771 -2.02181,-0.51345 -2.39302,-0.59053 l -0.67495,-0.14014 0.0273,-0.5617 c 0.015,-0.30893 0.0386,-0.57387 0.0524,-0.58874 0.0554,-0.0598 1.80812,0.4865 2.80128,0.87317 1.12348,0.4374 2.66617,1.20365 3.0446,1.51224 l 0.22791,0.18584 -0.18992,-0.006 c -0.10446,-0.003 -0.41213,-0.0574 -0.68372,-0.11987 z m -20.00882,4.41574 c 1.36741,-0.23798 3.26394,-1.01429 4.79464,-1.96258 1.06817,-0.66174 1.13339,-0.72969 1.19315,-1.24296 0.1107,-0.95084 0.48052,-1.84502 1.07808,-2.60665 0.78106,-0.99553 2.36366,-2.09257 3.22987,-2.23892 0.31442,-0.0531 0.58183,-0.33176 0.47863,-0.49873 -0.0789,-0.1277 -1.83613,-0.0232 -2.83542,0.16858 -4.14905,0.79637 -7.82604,3.78863 -9.43026,7.67416 -0.26141,0.63313 -0.27941,0.7162 -0.16525,0.76221 0.22459,0.0905 0.96056,0.066 1.65656,-0.0551 z m -1.873721,-0.88917 c 2.244771,-4.67374 5.740471,-7.2972 10.654031,-7.99565 0.43051,-0.0612 1.03915,-0.11236 1.35252,-0.11369 0.93001,-0.004 0.91165,0.0104 0.91151,-0.71193 -1.3e-4,-0.68299 -0.12777,-1.04007 -0.45569,-1.27485 -0.28981,-0.20748 -1.49954,-0.44459 -2.26832,-0.44459 -3.3447,0 -7.72826,2.59133 -10.350082,6.11842 -0.894593,1.20348 -1.340642,2.18675 -1.468639,3.23747 -0.05242,0.43033 0.04799,0.67918 0.14752,0.3656 0.08777,-0.27654 0.961999,-1.37349 1.275758,-1.60078 0.166976,-0.12096 0.381413,-0.21992 0.476513,-0.21992 0.16461,0 0.15163,0.0429 -0.269867,0.89263 -0.350132,0.70584 -0.913448,2.10185 -0.913448,2.26371 0,0.0378 0.399155,0.25521 0.476014,0.25923 0.032,0.002 0.226482,-0.34737 0.43218,-0.77565 z m 14.258911,-1.21748 c 1.08178,-1.51789 1.62207,-3.06404 1.62207,-4.64185 0,-1.26339 -0.37881,-2.24318 -1.1715,-3.03011 -0.43225,-0.42911 -1.0616,-0.87161 -1.44363,-1.01503 -0.12257,-0.046 -0.13611,-0.0313 -0.084,0.0913 0.0342,0.0804 0.0783,0.4602 0.098,0.84407 0.0294,0.57327 0.006,0.79716 -0.13202,1.25349 -0.31753,1.05093 -0.93781,2.06456 -2.1893,3.57766 l -0.48889,0.59109 0.43726,0.57089 c 0.64809,0.84614 1.78222,1.82292 1.92587,1.65867 0.15051,-0.1721 1.07704,-1.56133 1.33809,-2.00631 0.15932,-0.27159 0.50917,-1.00659 0.77743,-1.63334 l 0.48776,-1.13954 -0.0406,0.75969 c -0.0733,1.37012 -0.56908,2.73536 -1.44997,3.99248 -0.28635,0.40866 -0.38507,0.60777 -0.32909,0.66375 0.12821,0.12821 0.22784,0.045 0.6425,-0.53688 z m -2.92691,-4.20829 c 0.28076,-0.29694 0.82649,-1.07775 0.82649,-1.18252 0,-0.22071 -0.73965,0.14282 -1.04547,0.51384 -0.24811,0.301 -0.42472,0.78936 -0.35303,0.97619 0.0599,0.15602 0.21006,0.0753 0.57201,-0.30751 z"
       id="path1" /></g><metadata
     id="metadata1"><rdf:RDF><cc:Work
         rdf:about=""><dc:identifier>anells</dc:identifier></cc:Work></rdf:RDF></metadata></svg>
