<?xml version="1.0" encoding="UTF-8" standalone="no"?>
<!-- Created with Inkscape (http://www.inkscape.org/) -->

<svg
   width="66.943329mm"
   height="56.215076mm"
   viewBox="0 0 66.943329 56.215076"
   version="1.1"
   id="svg1"
   xml:space="preserve"
   inkscape:version="1.3.1 (9b9bdc1480, 2023-11-25, custom)"
   sodipodi:docname="menuRegal.svg"
   xmlns:inkscape="http://www.inkscape.org/namespaces/inkscape"
   xmlns:sodipodi="http://sodipodi.sourceforge.net/DTD/sodipodi-0.dtd"
   xmlns="http://www.w3.org/2000/svg"
   xmlns:svg="http://www.w3.org/2000/svg"><sodipodi:namedview
     id="namedview1"
     pagecolor="#ffffff"
     bordercolor="#000000"
     borderopacity="0.25"
     inkscape:showpageshadow="2"
     inkscape:pageopacity="0.0"
     inkscape:pagecheckerboard="0"
     inkscape:deskcolor="#d1d1d1"
     inkscape:document-units="mm"
     showgrid="false"
     inkscape:zoom="0.40979237"
     inkscape:cx="256.22732"
     inkscape:cy="-75.648066"
     inkscape:window-width="1366"
     inkscape:window-height="660"
     inkscape:window-x="0"
     inkscape:window-y="0"
     inkscape:window-maximized="1"
     inkscape:current-layer="layer1" /><defs
     id="defs1" /><g
     inkscape:label="Layer 1"
     inkscape:groupmode="layer"
     id="layer1"
     transform="translate(-37.312321,-168.29496)"><path
       style="fill:#000000"
       d="m 58.543281,206.61435 0.068,-17.89478 1.719792,-0.64121 c 0.945885,-0.35266 2.553229,-0.96527 3.571875,-1.36135 l 1.852083,-0.72014 -10.847916,-0.13229 -10.847917,-0.13229 1.5875,-0.79375 1.5875,-0.79375 8.863542,-0.0861 8.863541,-0.0861 -2.513541,-0.73215 c -5.318132,-1.54905 -9.318948,-3.59092 -10.774059,-5.49866 -0.955354,-1.25254 -1.12605,-3.29876 -0.394525,-4.72938 0.824445,-1.61234 2.584883,-3.44805 3.932106,-4.10022 1.018638,-0.49312 1.695737,-0.59655 4.031916,-0.61589 3.316657,-0.0275 4.287365,0.35787 6.505163,2.58222 1.604045,1.60878 2.204504,3.06917 3.741062,9.09871 0.56547,2.21894 1.093182,4.03465 1.172693,4.0349 0.07951,2.5e-4 0.2803,-0.92228 0.446198,-2.05007 1.256911,-8.54457 6.765342,-14.10744 12.886685,-13.01404 0.882091,0.15756 2.092725,0.57045 2.690299,0.91754 0.95917,0.55711 1.140686,0.82419 1.548893,2.27903 0.323448,1.15276 0.409144,2.04939 0.285184,2.98385 -0.464334,3.50032 -3.556738,6.90475 -7.589767,8.35559 l -1.416224,0.50946 8.797396,0.01 8.797395,0.01 v 17.99501 17.995 l -1.48813,0.65812 c -0.818472,0.36197 -1.532847,0.65812 -1.5875,0.65812 -0.05465,0 -0.09937,-7.97718 -0.09937,-17.72708 v -17.72708 l -10.517187,-9.9e-4 -10.517187,-9.8e-4 -3.439583,1.36369 c -1.891771,0.75004 -3.53847,1.45063 -3.65933,1.55688 -0.120861,0.10625 -0.239924,8.15483 -0.264584,17.88573 l -0.04484,17.69254 -3.507581,0.0738 -3.50758,0.0738 z M 69.85607,183.86458 c 0,-0.2753 -3.284779,-4.4668 -5.63058,-7.18482 -3.650192,-4.22939 -7.232528,-6.95476 -9.141609,-6.95476 -1.108422,0 -2.161144,0.91793 -2.161144,1.88442 0,1.16583 0.549947,2.0337 2.434509,3.84189 3.566578,3.42203 14.498824,9.76572 14.498824,8.41327 z m 4.212938,-1.16659 c 3.64291,-1.50222 12.018752,-7.93828 13.131717,-10.09051 0.750683,-1.45167 0.264853,-2.35332 -1.268021,-2.35332 -1.912415,0 -6.166487,3.50203 -10.234874,8.42554 -2.351262,2.84546 -3.840007,4.80363 -3.652082,4.80363 0.06534,0 0.975802,-0.3534 2.02326,-0.78534 z m -36.756687,23.58416 v -17.68242 l 2.474169,-0.97926 2.47417,-0.97926 8.969059,0.21504 c 8.174373,0.19598 8.869149,0.24742 7.841438,0.58054 -0.620191,0.20103 -1.273085,0.54079 -1.450876,0.75501 -0.247413,0.29812 -0.324271,4.54024 -0.327587,18.08106 l -0.0043,17.69157 -9.988021,7e-5 -9.98802,8e-5 z m 29.104165,0.6492 c 0,-13.31073 0.07228,-17.09038 0.33073,-17.29472 0.181901,-0.14382 1.831087,-0.81324 3.664857,-1.4876 l 3.334129,-1.22612 h 9.432017 9.432017 v 17.30268 17.30268 l -3.044051,1.21815 -3.04405,1.21816 H 76.46931 66.416486 Z m 31.749999,-5.83093 V 182.9631 l -6.81302,-0.0706 -6.813021,-0.0706 0.957272,-0.59531 c 0.943248,-0.58659 1.087654,-0.59532 9.857604,-0.59532 h 8.90033 l -0.068,17.63313 -0.068,17.63312 -2.51354,1.01635 c -1.38245,0.55899 -2.7219,1.08555 -2.976562,1.17012 -0.437965,0.14546 -0.463021,-0.82771 -0.463021,-17.98354 z m -44.928244,-18.84679 1.770712,-0.6712 1.404288,0.66381 1.404287,0.66382 -3.175,0.007 -3.174999,0.007 z"
       id="path1" /></g></svg>
