<?xml version="1.0" encoding="UTF-8" standalone="no"?>
<!-- Created with Inkscape (http://www.inkscape.org/) -->

<svg
   width="10.319662mm"
   height="12.463115mm"
   viewBox="0 0 10.319662 12.463115"
   version="1.1"
   id="svg1"
   xml:space="preserve"
   inkscape:version="1.3.1 (9b9bdc1480, 2023-11-25, custom)"
   sodipodi:docname="menuParella.svg"
   xmlns:inkscape="http://www.inkscape.org/namespaces/inkscape"
   xmlns:sodipodi="http://sodipodi.sourceforge.net/DTD/sodipodi-0.dtd"
   xmlns="http://www.w3.org/2000/svg"
   xmlns:svg="http://www.w3.org/2000/svg"><sodipodi:namedview
     id="namedview1"
     pagecolor="#ffffff"
     bordercolor="#000000"
     borderopacity="0.25"
     inkscape:showpageshadow="2"
     inkscape:pageopacity="0.0"
     inkscape:pagecheckerboard="0"
     inkscape:deskcolor="#d1d1d1"
     inkscape:document-units="mm"
     inkscape:zoom="3.2783389"
     inkscape:cx="43.924683"
     inkscape:cy="53.380692"
     inkscape:window-width="1366"
     inkscape:window-height="660"
     inkscape:window-x="0"
     inkscape:window-y="0"
     inkscape:window-maximized="1"
     inkscape:current-layer="layer1" /><defs
     id="defs1" /><g
     inkscape:label="Layer 1"
     inkscape:groupmode="layer"
     id="layer1"
     transform="translate(-93.572803,-130.44729)"><path
       style="fill:#000000;stroke-width:1.62016"
       d="m 94.421342,142.68535 c -0.0081,-0.0473 -0.0033,-1.09107 0.01134,-2.31961 0.02592,-2.2477 -0.05152,-3.3219 -0.239265,-3.3219 -0.0559,0 -0.101585,0.10936 -0.101585,0.24312 0,0.59351 -0.326366,-0.0761 -0.450341,-0.92401 -0.216875,-1.48323 0.100613,-3.34614 0.660071,-3.87393 0.202667,-0.19115 0.257234,-0.30558 0.161855,-0.33937 -0.226871,-0.0804 -0.04342,-0.26051 0.265205,-0.26051 0.25503,0 0.279608,-0.0454 0.279608,-0.51547 0,-0.85858 0.584652,-1.2045 1.141195,-0.6752 0.211968,0.20159 0.165938,1.01232 -0.07874,1.38562 -0.201192,0.30707 -0.212144,0.28598 0.277731,0.53505 0.408116,0.20751 0.950729,0.24851 0.950729,0.0718 0,-0.063 -0.08214,-0.11454 -0.182578,-0.11454 -0.162066,0 -0.149867,-1.06086 0.01457,-1.24103 0.167264,-0.1836 0.969783,-0.13399 1.176548,0.0729 0.407213,0.40721 0.601632,2.95784 0.223178,2.9278 -0.220829,-0.0175 -0.269111,0.13172 -0.08036,0.24845 0.08328,0.0515 0.08198,0.12006 -0.0033,0.2238 -0.06821,0.0823 -0.109361,0.21826 -0.09154,0.30222 0.01799,0.0839 -0.134797,0.22757 -0.339616,0.31911 -0.41073,0.18363 -0.447573,0.30229 -0.196821,0.63382 0.09251,0.12233 0.168176,0.44702 0.168176,0.72162 0,0.96958 3.044508,4.61346 4.217278,5.0476 0.16908,0.0625 0.63152,0.22907 1.02769,0.36998 1.26387,0.44955 0.93617,0.5091 -2.96356,0.53857 -3.598717,0.0272 -3.598717,0.0272 -4.262223,-0.28636 l -0.663506,-0.31358 0.058,-1.83278 c 0.058,-1.83278 0.058,-1.83278 -0.104825,-0.85911 -0.08959,0.53551 -0.165046,1.32325 -0.167719,1.75054 -0.0065,1.00515 -0.584134,2.22022 -0.706441,1.48545 z m 2.106005,-1.37458 c 0.347733,-0.88249 0.33132,-2.09051 -0.02837,-2.09051 -0.109035,0 -0.345046,1.36024 -0.345046,1.98917 0,0.64215 0.144842,0.68147 0.373483,0.10126 z m -2.206261,-5.22628 c 0,-0.33863 0.03224,-0.77679 0.07161,-0.97367 0.04391,-0.21935 0.02495,-0.35796 -0.04893,-0.35796 -0.07193,0 -0.135445,0.39268 -0.15748,0.97393 -0.02041,0.53566 0.0016,0.97382 0.04893,0.97367 0.04731,-1.4e-4 0.08587,-0.27734 0.08587,-0.61597 z m 3.49374,-1.14071 c 0,-0.29858 -0.224619,-0.27985 -0.267376,0.0223 -0.02625,0.18545 0.0097,0.25448 0.114546,0.21957 0.08409,-0.0281 0.152781,-0.13691 0.152781,-0.24186 z m 0.859108,-0.82769 c 0,-0.0982 -0.05233,-0.14614 -0.116329,-0.10661 -0.06399,0.0395 -0.08684,0.11989 -0.05055,0.17859 0.09818,0.15894 0.166942,0.12929 0.166942,-0.0719 z m -2.027556,-0.75414 c 0.06108,-0.0405 0.0081,-0.1288 -0.11827,-0.19643 -0.270682,-0.14484 -0.374178,-0.0701 -0.374178,0.27004 0,0.34413 0.137229,0.44753 0.270244,0.20365 0.06108,-0.11196 0.161207,-0.23677 0.22227,-0.27726 z"
       id="path1" /></g></svg>
